<?xml version="1.0" encoding="UTF-8"?>
<!-- Generator: Adobe Illustrator 28.0.0, SVG Export Plug-In . SVG Version: 6.00 Build 0)  -->
<svg xmlns="http://www.w3.org/2000/svg" xmlns:xlink="http://www.w3.org/1999/xlink" version="1.1" id="Capa_1" x="0px" y="0px" viewBox="0 0 300 73.5" style="enable-background:new 0 0 300 73.5;" xml:space="preserve">
<style type="text/css">
	.st0{fill:#12395E;}
</style>
<g>
	<g>
		<path class="st0" d="M99.5,32.9V16.7h8.3V18h-7.1v5.8h6.5v1.3h-6.5v7.7H99.5z"></path>
		<path class="st0" d="M113.7,26.1c0.2,0,0.4-0.1,0.7-0.1c0.3-0.1,0.5-0.1,0.7-0.2c0.2-0.1,0.3-0.3,0.3-0.5c0-0.2,0.1-0.5,0.1-0.7    c0-0.7-0.2-1.3-0.5-1.7c-0.4-0.4-0.9-0.7-1.8-0.7c-0.4,0-0.7,0-1,0.1c-0.3,0.1-0.6,0.2-0.8,0.4c-0.2,0.2-0.4,0.5-0.6,0.8    c-0.1,0.3-0.2,0.8-0.3,1.3h-1.1c0-0.7,0.2-1.3,0.4-1.8c0.2-0.5,0.5-0.9,0.8-1.2c0.3-0.3,0.7-0.5,1.2-0.7c0.4-0.1,0.9-0.2,1.4-0.2    c0.5,0,0.9,0.1,1.3,0.2c0.4,0.1,0.8,0.3,1.1,0.6c0.3,0.3,0.5,0.6,0.7,1.1c0.2,0.5,0.3,1,0.3,1.7v6.3c0,0.5,0.1,0.9,0.2,1    c0.1,0.1,0.5,0.1,0.9-0.1v1.1c-0.1,0-0.2,0.1-0.4,0.1c-0.2,0.1-0.3,0.1-0.5,0.1c-0.2,0-0.3,0-0.5-0.1c-0.2,0-0.3-0.1-0.4-0.2    c-0.1-0.1-0.2-0.2-0.3-0.4c-0.1-0.2-0.1-0.3-0.1-0.5c0-0.2,0-0.4,0-0.6c-0.5,0.6-1,1.1-1.6,1.4c-0.6,0.3-1.2,0.5-1.9,0.5    c-0.4,0-0.8-0.1-1.2-0.2c-0.4-0.1-0.7-0.3-1-0.6c-0.3-0.3-0.5-0.6-0.7-1c-0.2-0.4-0.3-0.9-0.3-1.5c0-2,1.1-3.1,3.2-3.5L113.7,26.1    z M115.5,26.8c-0.5,0.2-0.9,0.4-1.4,0.5c-0.5,0.1-0.9,0.1-1.4,0.2c-0.8,0.1-1.5,0.3-1.9,0.7c-0.5,0.4-0.7,1-0.7,1.8    c0,0.4,0.1,0.7,0.2,0.9c0.1,0.3,0.3,0.5,0.4,0.7c0.2,0.2,0.4,0.3,0.6,0.4c0.2,0.1,0.5,0.1,0.7,0.1c0.4,0,0.8-0.1,1.3-0.2    c0.4-0.1,0.8-0.3,1.1-0.6c0.3-0.3,0.6-0.6,0.8-1.1c0.2-0.4,0.3-0.9,0.3-1.5V26.8z"></path>
		<path class="st0" d="M126,24.9c-0.2-0.9-0.5-1.5-1-2c-0.5-0.5-1.1-0.7-1.8-0.7c-0.6,0-1,0.1-1.4,0.4c-0.4,0.3-0.7,0.7-1,1.1    s-0.4,1-0.6,1.6c-0.1,0.6-0.2,1.2-0.2,1.8c0,0.6,0.1,1.2,0.2,1.8c0.1,0.6,0.3,1.1,0.5,1.6c0.3,0.5,0.6,0.8,1,1.1    c0.4,0.3,0.9,0.4,1.4,0.4c0.8,0,1.4-0.3,1.9-0.8c0.5-0.6,0.8-1.3,0.9-2.3h1.1c-0.1,0.6-0.2,1.2-0.5,1.8c-0.2,0.5-0.5,1-0.8,1.4    c-0.3,0.4-0.7,0.7-1.2,0.9c-0.5,0.2-1,0.3-1.6,0.3c-0.7,0-1.4-0.2-1.9-0.5c-0.5-0.3-1-0.7-1.3-1.3c-0.3-0.5-0.6-1.2-0.8-1.9    c-0.2-0.7-0.3-1.5-0.3-2.4c0-0.8,0.1-1.6,0.3-2.3c0.2-0.7,0.5-1.4,0.8-2c0.4-0.6,0.8-1,1.3-1.4c0.5-0.3,1.1-0.5,1.8-0.5    c1.1,0,1.9,0.3,2.6,1c0.7,0.6,1.1,1.6,1.2,3H126z"></path>
		<path class="st0" d="M135.7,21.3h1.1v11.6h-1.1v-1.6c-0.1,0.2-0.3,0.4-0.5,0.7c-0.2,0.2-0.4,0.4-0.6,0.6c-0.2,0.2-0.5,0.3-0.8,0.5    c-0.3,0.1-0.7,0.2-1.1,0.2c-0.6,0-1.1-0.1-1.6-0.3c-0.4-0.2-0.8-0.5-1-0.9c-0.3-0.4-0.4-0.8-0.6-1.4c-0.1-0.5-0.2-1.1-0.2-1.7    v-7.6h1.1v7.6c0,1,0.2,1.8,0.6,2.3c0.4,0.5,1,0.8,1.8,0.8c0.4,0,0.8-0.1,1.2-0.3c0.4-0.2,0.6-0.5,0.9-0.9c0.2-0.4,0.4-0.9,0.6-1.4    c0.1-0.5,0.2-1.1,0.2-1.8V21.3z"></path>
		<path class="st0" d="M139.6,32.9V16.7h1.1v16.1H139.6z"></path>
		<path class="st0" d="M146.7,32.9c-0.1,0-0.3,0.1-0.5,0.2c-0.2,0.1-0.5,0.1-0.7,0.1c-0.5,0-0.9-0.2-1.2-0.5    c-0.3-0.3-0.4-0.9-0.4-1.8v-8.5h-1.3v-1.1h1.3V18h1.1v3.2h1.7v1.1h-1.7v8c0,0.3,0,0.5,0,0.7c0,0.2,0,0.4,0.1,0.5    c0.1,0.1,0.2,0.2,0.3,0.3c0.1,0.1,0.3,0.1,0.5,0.1c0.1,0,0.3,0,0.4,0c0.1,0,0.3-0.1,0.4-0.1V32.9z"></path>
		<path class="st0" d="M152.7,26.1c0.2,0,0.4-0.1,0.7-0.1c0.3-0.1,0.5-0.1,0.7-0.2c0.2-0.1,0.3-0.3,0.3-0.5c0-0.2,0.1-0.5,0.1-0.7    c0-0.7-0.2-1.3-0.5-1.7c-0.4-0.4-0.9-0.7-1.8-0.7c-0.4,0-0.7,0-1,0.1c-0.3,0.1-0.6,0.2-0.8,0.4c-0.2,0.2-0.4,0.5-0.6,0.8    c-0.1,0.3-0.2,0.8-0.3,1.3h-1.1c0-0.7,0.2-1.3,0.4-1.8c0.2-0.5,0.5-0.9,0.8-1.2c0.3-0.3,0.7-0.5,1.2-0.7c0.4-0.1,0.9-0.2,1.4-0.2    c0.5,0,0.9,0.1,1.3,0.2c0.4,0.1,0.8,0.3,1.1,0.6c0.3,0.3,0.5,0.6,0.7,1.1c0.2,0.5,0.3,1,0.3,1.7v6.3c0,0.5,0.1,0.9,0.2,1    c0.1,0.1,0.5,0.1,0.9-0.1v1.1c-0.1,0-0.2,0.1-0.4,0.1c-0.2,0.1-0.3,0.1-0.5,0.1c-0.2,0-0.3,0-0.5-0.1c-0.2,0-0.3-0.1-0.4-0.2    c-0.1-0.1-0.2-0.2-0.3-0.4c-0.1-0.2-0.1-0.3-0.1-0.5c0-0.2,0-0.4,0-0.6c-0.5,0.6-1,1.1-1.6,1.4c-0.6,0.3-1.2,0.5-1.9,0.5    c-0.4,0-0.8-0.1-1.2-0.2c-0.4-0.1-0.7-0.3-1-0.6c-0.3-0.3-0.5-0.6-0.7-1c-0.2-0.4-0.3-0.9-0.3-1.5c0-2,1.1-3.1,3.2-3.5L152.7,26.1    z M154.5,26.8c-0.5,0.2-0.9,0.4-1.4,0.5c-0.5,0.1-0.9,0.1-1.4,0.2c-0.8,0.1-1.5,0.3-1.9,0.7c-0.5,0.4-0.7,1-0.7,1.8    c0,0.4,0.1,0.7,0.2,0.9c0.1,0.3,0.3,0.5,0.4,0.7c0.2,0.2,0.4,0.3,0.6,0.4c0.2,0.1,0.5,0.1,0.7,0.1c0.4,0,0.8-0.1,1.3-0.2    c0.4-0.1,0.8-0.3,1.1-0.6c0.3-0.3,0.6-0.6,0.8-1.1c0.2-0.4,0.3-0.9,0.3-1.5V26.8z"></path>
		<path class="st0" d="M165.6,16.7h1.1v16.1h-1.1v-2h0c-0.2,0.4-0.4,0.7-0.6,1s-0.5,0.5-0.8,0.7c-0.3,0.2-0.6,0.3-0.9,0.4    c-0.3,0.1-0.6,0.2-0.9,0.2c-0.8,0-1.4-0.2-1.9-0.5c-0.5-0.3-1-0.7-1.3-1.3c-0.3-0.5-0.6-1.2-0.7-1.9c-0.2-0.7-0.2-1.5-0.2-2.4    c0-0.8,0.1-1.6,0.3-2.3c0.2-0.7,0.4-1.4,0.8-2c0.3-0.6,0.8-1,1.3-1.3c0.5-0.3,1.1-0.5,1.8-0.5c0.7,0,1.3,0.2,1.9,0.5    c0.6,0.4,1.1,0.9,1.4,1.6V16.7z M165.6,27c0-0.7-0.1-1.3-0.2-1.9c-0.1-0.6-0.3-1.1-0.6-1.5c-0.3-0.4-0.6-0.8-1-1.1    c-0.4-0.3-0.8-0.4-1.3-0.4c-0.6,0-1,0.1-1.5,0.4c-0.4,0.3-0.7,0.7-1,1.1c-0.3,0.5-0.5,1-0.6,1.7c-0.1,0.6-0.2,1.3-0.1,2.1    c0,0.7,0.1,1.4,0.2,1.9c0.2,0.6,0.4,1,0.7,1.4c0.3,0.4,0.6,0.7,1,0.9c0.4,0.2,0.8,0.3,1.3,0.3c0.5,0,1-0.1,1.3-0.4    c0.4-0.3,0.7-0.6,1-1c0.3-0.4,0.5-1,0.6-1.6C165.5,28.4,165.6,27.7,165.6,27z"></path>
		<path class="st0" d="M181.6,16.7h1.1v16.1h-1.1v-2h0c-0.2,0.4-0.4,0.7-0.6,1s-0.5,0.5-0.8,0.7c-0.3,0.2-0.6,0.3-0.9,0.4    c-0.3,0.1-0.6,0.2-0.9,0.2c-0.8,0-1.4-0.2-1.9-0.5c-0.5-0.3-1-0.7-1.3-1.3c-0.3-0.5-0.6-1.2-0.7-1.9c-0.2-0.7-0.2-1.5-0.2-2.4    c0-0.8,0.1-1.6,0.3-2.3c0.2-0.7,0.4-1.4,0.8-2c0.3-0.6,0.8-1,1.3-1.3c0.5-0.3,1.1-0.5,1.8-0.5c0.7,0,1.3,0.2,1.9,0.5    c0.6,0.4,1.1,0.9,1.4,1.6V16.7z M181.6,27c0-0.7-0.1-1.3-0.2-1.9c-0.1-0.6-0.3-1.1-0.6-1.5s-0.6-0.8-1-1.1    c-0.4-0.3-0.8-0.4-1.3-0.4c-0.6,0-1,0.1-1.5,0.4c-0.4,0.3-0.7,0.7-1,1.1c-0.3,0.5-0.5,1-0.6,1.7c-0.1,0.6-0.2,1.3-0.1,2.1    c0,0.7,0.1,1.4,0.2,1.9c0.2,0.6,0.4,1,0.7,1.4c0.3,0.4,0.6,0.7,1,0.9c0.4,0.2,0.8,0.3,1.3,0.3c0.5,0,1-0.1,1.3-0.4    c0.4-0.3,0.7-0.6,1-1c0.3-0.4,0.5-1,0.6-1.6C181.5,28.4,181.6,27.7,181.6,27z"></path>
		<path class="st0" d="M186,27.4c0,0.6,0.1,1.2,0.2,1.8c0.1,0.6,0.3,1,0.6,1.5c0.3,0.4,0.6,0.7,1,1c0.4,0.2,0.8,0.4,1.4,0.4    c0.7,0,1.3-0.2,1.8-0.7c0.5-0.5,0.8-1.1,1-2h1.2c-0.1,0.6-0.3,1.1-0.5,1.5c-0.2,0.5-0.5,0.9-0.8,1.2c-0.3,0.4-0.7,0.6-1.1,0.8    c-0.4,0.2-1,0.3-1.5,0.3c-0.7,0-1.4-0.2-1.9-0.5c-0.5-0.3-1-0.7-1.3-1.3c-0.3-0.5-0.6-1.2-0.8-1.9c-0.2-0.7-0.3-1.5-0.3-2.4    c0-0.9,0.1-1.7,0.3-2.4c0.2-0.7,0.5-1.4,0.8-2c0.4-0.6,0.8-1,1.3-1.3c0.5-0.3,1.1-0.5,1.8-0.5c1.3,0,2.3,0.5,3,1.6    c0.7,1.1,1.1,2.7,1.1,4.8H186z M192.1,26.3c0-0.6-0.1-1.1-0.2-1.6c-0.1-0.5-0.3-0.9-0.6-1.3c-0.2-0.4-0.6-0.7-0.9-0.9    c-0.4-0.2-0.8-0.3-1.3-0.3c-0.5,0-0.9,0.1-1.3,0.3c-0.4,0.2-0.7,0.5-0.9,0.9c-0.3,0.4-0.5,0.8-0.6,1.3s-0.3,1-0.3,1.6H192.1z"></path>
		<path class="st0" d="M201,32.9V16.7h1.2v16.1H201z"></path>
		<path class="st0" d="M206.4,32.9h-1.1V21.3h1.1v1.6c0.4-0.6,0.9-1,1.3-1.4c0.5-0.4,1-0.5,1.7-0.5c0.6,0,1.1,0.1,1.6,0.4    c0.5,0.2,0.9,0.7,1.2,1.3c0.2,0.4,0.4,0.8,0.4,1.3s0.1,0.9,0.1,1.4v7.6h-1.1v-7.6c0-1-0.2-1.8-0.6-2.4c-0.4-0.5-1-0.8-1.8-0.8    c-0.3,0-0.6,0.1-0.9,0.2c-0.3,0.1-0.5,0.3-0.7,0.5c-0.2,0.2-0.4,0.4-0.6,0.7c-0.2,0.3-0.3,0.6-0.4,0.9c-0.1,0.4-0.2,0.7-0.2,1.1    c0,0.3,0,0.7,0,1.1V32.9z"></path>
		<path class="st0" d="M222.5,21.3h1.1v10.5c0,0.8-0.1,1.5-0.2,2.2s-0.3,1.3-0.7,1.9c-0.3,0.5-0.8,1-1.3,1.3    c-0.6,0.3-1.3,0.5-2.2,0.5c-0.7,0-1.3-0.1-1.8-0.3c-0.5-0.2-0.9-0.5-1.2-0.8c-0.3-0.3-0.5-0.7-0.7-1.1c-0.2-0.4-0.2-0.8-0.3-1.1    h1.1c0.1,0.4,0.2,0.8,0.4,1.1c0.2,0.3,0.4,0.5,0.6,0.6c0.2,0.2,0.5,0.3,0.8,0.3c0.3,0.1,0.6,0.1,0.9,0.1c0.7,0,1.3-0.2,1.8-0.5    c0.4-0.3,0.8-0.7,1-1.2c0.2-0.5,0.4-1.1,0.4-1.7c0.1-0.6,0.1-1.3,0.1-2c-0.3,0.7-0.8,1.3-1.4,1.6c-0.6,0.4-1.2,0.5-1.9,0.5    c-0.7,0-1.3-0.2-1.8-0.5c-0.5-0.3-1-0.8-1.3-1.3c-0.3-0.6-0.6-1.2-0.8-2c-0.2-0.7-0.3-1.5-0.3-2.3c0-0.9,0.1-1.7,0.2-2.4    c0.2-0.7,0.4-1.4,0.7-1.9c0.3-0.5,0.8-1,1.3-1.3c0.5-0.3,1.2-0.5,1.9-0.5c0.3,0,0.6,0.1,0.9,0.2c0.3,0.1,0.6,0.3,0.9,0.4    c0.3,0.2,0.6,0.4,0.8,0.7c0.2,0.3,0.4,0.6,0.6,1h0V21.3z M222.5,27.1c0-0.7-0.1-1.4-0.2-2c-0.1-0.6-0.3-1.1-0.6-1.6    c-0.3-0.4-0.6-0.8-1-1c-0.4-0.3-0.8-0.4-1.3-0.4c-0.5,0-0.9,0.1-1.3,0.3c-0.4,0.2-0.7,0.5-1,0.9c-0.3,0.4-0.5,0.9-0.7,1.4    c-0.2,0.6-0.2,1.2-0.2,1.9c0,0.7,0,1.4,0.1,2.1c0.1,0.6,0.3,1.2,0.6,1.7c0.3,0.5,0.6,0.9,1,1.1c0.4,0.3,0.9,0.4,1.5,0.4    c0.5,0,0.9-0.1,1.3-0.4c0.4-0.3,0.7-0.6,1-1.1c0.3-0.4,0.5-1,0.6-1.5C222.5,28.4,222.5,27.8,222.5,27.1z"></path>
		<path class="st0" d="M227,27.4c0,0.6,0.1,1.2,0.2,1.8c0.1,0.6,0.3,1,0.6,1.5c0.3,0.4,0.6,0.7,1,1c0.4,0.2,0.8,0.4,1.4,0.4    c0.7,0,1.3-0.2,1.8-0.7c0.5-0.5,0.8-1.1,1-2h1.2c-0.1,0.6-0.3,1.1-0.5,1.5c-0.2,0.5-0.5,0.9-0.8,1.2c-0.3,0.4-0.7,0.6-1.1,0.8    c-0.4,0.2-1,0.3-1.5,0.3c-0.7,0-1.4-0.2-1.9-0.5c-0.5-0.3-1-0.7-1.3-1.3c-0.3-0.5-0.6-1.2-0.8-1.9c-0.2-0.7-0.3-1.5-0.3-2.4    c0-0.9,0.1-1.7,0.3-2.4c0.2-0.7,0.5-1.4,0.8-2c0.4-0.6,0.8-1,1.3-1.3c0.5-0.3,1.1-0.5,1.8-0.5c1.3,0,2.3,0.5,3,1.6    c0.7,1.1,1.1,2.7,1.1,4.8H227z M233.1,26.3c0-0.6-0.1-1.1-0.2-1.6c-0.1-0.5-0.3-0.9-0.6-1.3c-0.2-0.4-0.6-0.7-0.9-0.9    c-0.4-0.2-0.8-0.3-1.3-0.3c-0.5,0-0.9,0.1-1.3,0.3c-0.4,0.2-0.7,0.5-0.9,0.9c-0.3,0.4-0.5,0.8-0.6,1.3c-0.2,0.5-0.3,1-0.3,1.6    H233.1z"></path>
		<path class="st0" d="M237.4,32.9h-1.1V21.3h1.1v1.6c0.4-0.6,0.9-1,1.3-1.4c0.5-0.4,1-0.5,1.7-0.5c0.6,0,1.1,0.1,1.6,0.4    c0.5,0.2,0.9,0.7,1.2,1.3c0.2,0.4,0.4,0.8,0.4,1.3c0,0.4,0.1,0.9,0.1,1.4v7.6h-1.1v-7.6c0-1-0.2-1.8-0.6-2.4    c-0.4-0.5-1-0.8-1.8-0.8c-0.3,0-0.6,0.1-0.9,0.2c-0.3,0.1-0.5,0.3-0.7,0.5c-0.2,0.2-0.4,0.4-0.6,0.7c-0.2,0.3-0.3,0.6-0.4,0.9    c-0.1,0.4-0.2,0.7-0.2,1.1s0,0.7,0,1.1V32.9z"></path>
		<path class="st0" d="M246.4,18.7v-2h1.2v2H246.4z M246.5,32.9V21.3h1.1v11.6H246.5z"></path>
		<path class="st0" d="M251,27.4c0,0.6,0.1,1.2,0.2,1.8c0.1,0.6,0.3,1,0.6,1.5c0.3,0.4,0.6,0.7,1,1c0.4,0.2,0.8,0.4,1.4,0.4    c0.7,0,1.3-0.2,1.8-0.7c0.5-0.5,0.8-1.1,1-2h1.2c-0.1,0.6-0.3,1.1-0.5,1.5c-0.2,0.5-0.5,0.9-0.8,1.2c-0.3,0.4-0.7,0.6-1.1,0.8    c-0.4,0.2-1,0.3-1.5,0.3c-0.7,0-1.4-0.2-1.9-0.5c-0.5-0.3-1-0.7-1.3-1.3c-0.3-0.5-0.6-1.2-0.8-1.9c-0.2-0.7-0.3-1.5-0.3-2.4    c0-0.9,0.1-1.7,0.3-2.4c0.2-0.7,0.5-1.4,0.8-2c0.4-0.6,0.8-1,1.3-1.3c0.5-0.3,1.1-0.5,1.8-0.5c1.3,0,2.3,0.5,3,1.6    c0.7,1.1,1.1,2.7,1.1,4.8H251z M257,26.3c0-0.6-0.1-1.1-0.2-1.6c-0.1-0.5-0.3-0.9-0.6-1.3c-0.2-0.4-0.6-0.7-0.9-0.9    c-0.4-0.2-0.8-0.3-1.3-0.3c-0.5,0-0.9,0.1-1.3,0.3c-0.4,0.2-0.7,0.5-0.9,0.9c-0.3,0.4-0.5,0.8-0.6,1.3c-0.2,0.5-0.3,1-0.3,1.6H257    z"></path>
		<path class="st0" d="M261.4,32.9h-1.1V21.3h1.1v2.2h0c0.3-0.9,0.7-1.6,1.2-1.9c0.5-0.4,1.1-0.5,1.9-0.5v1.5    c-0.6,0-1.1,0.1-1.5,0.4c-0.4,0.3-0.7,0.6-0.9,1c-0.2,0.4-0.4,0.9-0.5,1.5c-0.1,0.6-0.1,1.2-0.1,1.8V32.9z"></path>
		<path class="st0" d="M265.6,20l2-3.1h1.4l-2.5,3.1H265.6z M266.4,32.9V21.3h1.1v11.6H266.4z"></path>
		<path class="st0" d="M274.6,26.1c0.2,0,0.4-0.1,0.7-0.1c0.3-0.1,0.5-0.1,0.7-0.2c0.2-0.1,0.3-0.3,0.3-0.5c0-0.2,0.1-0.5,0.1-0.7    c0-0.7-0.2-1.3-0.5-1.7c-0.4-0.4-0.9-0.7-1.8-0.7c-0.4,0-0.7,0-1,0.1c-0.3,0.1-0.6,0.2-0.8,0.4c-0.2,0.2-0.4,0.5-0.6,0.8    c-0.1,0.3-0.2,0.8-0.3,1.3h-1.1c0-0.7,0.2-1.3,0.4-1.8c0.2-0.5,0.5-0.9,0.8-1.2c0.3-0.3,0.7-0.5,1.2-0.7s0.9-0.2,1.4-0.2    c0.5,0,0.9,0.1,1.3,0.2c0.4,0.1,0.8,0.3,1.1,0.6c0.3,0.3,0.5,0.6,0.7,1.1c0.2,0.5,0.3,1,0.3,1.7v6.3c0,0.5,0.1,0.9,0.2,1    c0.1,0.1,0.5,0.1,0.9-0.1v1.1c-0.1,0-0.2,0.1-0.4,0.1c-0.2,0.1-0.3,0.1-0.5,0.1c-0.2,0-0.3,0-0.5-0.1c-0.2,0-0.3-0.1-0.4-0.2    c-0.1-0.1-0.2-0.2-0.3-0.4c-0.1-0.2-0.1-0.3-0.1-0.5c0-0.2,0-0.4,0-0.6c-0.5,0.6-1,1.1-1.6,1.4c-0.6,0.3-1.2,0.5-1.9,0.5    c-0.4,0-0.8-0.1-1.2-0.2c-0.4-0.1-0.7-0.3-1-0.6c-0.3-0.3-0.5-0.6-0.7-1c-0.2-0.4-0.3-0.9-0.3-1.5c0-2,1.1-3.1,3.2-3.5L274.6,26.1    z M276.4,26.8c-0.5,0.2-0.9,0.4-1.4,0.5c-0.5,0.1-0.9,0.1-1.4,0.2c-0.8,0.1-1.5,0.3-1.9,0.7c-0.5,0.4-0.7,1-0.7,1.8    c0,0.4,0.1,0.7,0.2,0.9c0.1,0.3,0.3,0.5,0.4,0.7c0.2,0.2,0.4,0.3,0.6,0.4c0.2,0.1,0.5,0.1,0.7,0.1c0.4,0,0.8-0.1,1.3-0.2    c0.4-0.1,0.8-0.3,1.1-0.6c0.3-0.3,0.6-0.6,0.8-1.1c0.2-0.4,0.3-0.9,0.3-1.5V26.8z"></path>
		<path class="st0" d="M99.3,43h2.3v8.5c0,0.9,0.1,1.6,0.3,2.1c0.3,0.8,0.9,1.2,1.8,1.2c0.9,0,1.5-0.4,1.8-1.2    c0.2-0.4,0.3-1.1,0.3-2.1V43h2.3v8.5c0,1.5-0.2,2.6-0.5,3.4c-0.7,1.5-2,2.3-3.9,2.3c-1.9,0-3.2-0.8-3.9-2.3    c-0.4-0.8-0.5-2-0.5-3.4V43z"></path>
		<path class="st0" d="M116.9,47.2c0.5,0.6,0.8,1.5,0.8,2.8v6.9h-2.2v-6.2c0-0.5-0.1-1-0.2-1.2c-0.2-0.5-0.6-0.8-1.2-0.8    c-0.7,0-1.2,0.4-1.5,1.2c-0.1,0.4-0.2,0.9-0.2,1.6v5.5h-2.1V46.6h2.1v1.5c0.3-0.5,0.5-0.9,0.8-1.1c0.4-0.4,1-0.6,1.7-0.6    C115.7,46.4,116.4,46.6,116.9,47.2z"></path>
		<path class="st0" d="M121.9,45.4h-2.2v-2.5h2.2V45.4z M119.7,46.6h2.2v10.2h-2.2V46.6z"></path>
		<path class="st0" d="M129,46.6h2.3l-3,10.2h-2.3l-2.9-10.2h2.4l1.7,7.5L129,46.6z"></path>
		<path class="st0" d="M137.9,46.8c0.6,0.3,1,0.8,1.4,1.5c0.3,0.6,0.6,1.3,0.7,2.1c0.1,0.5,0.1,1.1,0.1,2h-6c0,1,0.3,1.7,0.9,2.2    c0.3,0.3,0.7,0.4,1.2,0.4c0.5,0,0.9-0.2,1.2-0.5c0.2-0.2,0.3-0.4,0.4-0.7h2.2c-0.1,0.6-0.3,1.2-0.8,1.8c-0.7,1-1.8,1.5-3.1,1.5    c-1.1,0-2-0.4-2.9-1.3c-0.8-0.8-1.2-2.2-1.2-4.1c0-1.8,0.4-3.1,1.1-4.1c0.8-0.9,1.7-1.4,2.9-1.4C136.7,46.3,137.3,46.5,137.9,46.8    z M134.7,49.1c-0.3,0.4-0.5,0.9-0.6,1.6h3.7c0-0.7-0.2-1.2-0.6-1.6c-0.3-0.4-0.8-0.6-1.3-0.6C135.4,48.5,135,48.7,134.7,49.1z"></path>
		<path class="st0" d="M145.7,46.4c0,0,0.1,0,0.2,0v2.7c-0.1,0-0.3,0-0.4,0c-0.1,0-0.2,0-0.3,0c-0.9,0-1.4,0.4-1.7,1.1    c-0.2,0.4-0.2,1-0.2,1.8v4.9h-2.2V46.6h2v1.8c0.3-0.7,0.6-1.1,0.9-1.4c0.4-0.4,0.9-0.6,1.6-0.6C145.6,46.4,145.6,46.4,145.7,46.4z    "></path>
		<path class="st0" d="M148.8,53.6c0,0.5,0.1,0.8,0.3,1c0.3,0.4,0.8,0.5,1.5,0.5c0.4,0,0.8-0.1,1-0.2c0.2-0.2,0.4-0.4,0.4-0.7    c0-0.3-0.1-0.5-0.3-0.7c-0.2-0.2-0.9-0.4-2.2-0.8c-0.9-0.3-1.6-0.6-2-1.1c-0.4-0.4-0.6-1-0.6-1.8c0-0.9,0.3-1.8,0.9-2.4    c0.6-0.7,1.4-1,2.5-1c1,0,1.9,0.3,2.5,0.8c0.6,0.5,1,1.4,1.1,2.6h-2.1c0-0.3-0.1-0.6-0.2-0.8c-0.2-0.4-0.6-0.5-1.2-0.5    c-0.5,0-0.8,0.1-1,0.3c-0.2,0.2-0.3,0.4-0.3,0.6c0,0.3,0.1,0.5,0.3,0.7c0.2,0.1,1,0.4,2.2,0.7c0.9,0.2,1.5,0.6,1.9,1.1    c0.4,0.5,0.6,1.2,0.6,1.9c0,1-0.3,1.8-0.9,2.5c-0.6,0.6-1.5,1-2.8,1c-1.3,0-2.2-0.3-2.9-1c-0.6-0.7-0.9-1.5-0.9-2.6H148.8z"></path>
		<path class="st0" d="M157.9,45.4h-2.2v-2.5h2.2V45.4z M155.7,46.6h2.2v10.2h-2.2V46.6z"></path>
		<path class="st0" d="M164.3,46.8c0.4,0.3,0.7,0.6,0.9,1.1V43h2.2v13.8h-2.1v-1.4c-0.3,0.6-0.7,1-1,1.3c-0.4,0.3-0.9,0.4-1.5,0.4    c-1,0-1.8-0.5-2.4-1.4c-0.7-1-1-2.2-1-3.7c0-1.7,0.3-3.1,1-4.1c0.6-1,1.5-1.5,2.6-1.5C163.5,46.4,163.9,46.5,164.3,46.8z     M164.8,54.1c0.3-0.6,0.5-1.3,0.5-2.2c0-1.3-0.3-2.1-0.8-2.7c-0.3-0.3-0.7-0.5-1.1-0.5c-0.6,0-1.1,0.3-1.4,0.9    c-0.3,0.6-0.4,1.3-0.4,2.2c0,0.9,0.1,1.7,0.4,2.3c0.3,0.6,0.7,0.8,1.4,0.8C164,54.9,164.5,54.6,164.8,54.1z"></path>
		<path class="st0" d="M172.6,50.6c0.4-0.1,0.7-0.1,0.9-0.2c0.3-0.2,0.5-0.4,0.5-0.8c0-0.4-0.1-0.7-0.4-0.9c-0.2-0.2-0.6-0.2-1-0.2    c-0.5,0-0.9,0.2-1.1,0.5c-0.2,0.2-0.3,0.5-0.3,0.9h-2.1c0-0.9,0.2-1.6,0.6-2.2c0.6-0.9,1.5-1.4,2.9-1.4c0.9,0,1.7,0.2,2.4,0.7    c0.7,0.4,1,1.3,1,2.5v4.7c0,0.3,0,0.7,0,1.2c0,0.4,0.1,0.6,0.1,0.7c0.1,0.1,0.2,0.2,0.3,0.3v0.4h-2.3c-0.1-0.2-0.1-0.4-0.1-0.6    c0-0.2,0-0.4-0.1-0.6c-0.3,0.4-0.6,0.7-1,1c-0.5,0.3-1,0.5-1.6,0.5c-0.7,0-1.4-0.3-1.8-0.8c-0.5-0.5-0.7-1.3-0.7-2.2    c0-1.3,0.4-2.2,1.2-2.7c0.4-0.3,1.1-0.5,1.9-0.7L172.6,50.6z M173.9,51.9c-0.1,0.1-0.3,0.2-0.4,0.3c-0.1,0.1-0.3,0.1-0.6,0.2    l-0.5,0.1c-0.5,0.1-0.8,0.2-1,0.4c-0.3,0.2-0.5,0.6-0.5,1.1c0,0.5,0.1,0.8,0.3,1c0.2,0.2,0.5,0.3,0.8,0.3c0.5,0,0.9-0.2,1.3-0.5    c0.4-0.3,0.6-1,0.6-1.8V51.9z"></path>
		<path class="st0" d="M182.3,46.8c0.4,0.3,0.7,0.6,0.9,1.1V43h2.2v13.8h-2.1v-1.4c-0.3,0.6-0.7,1-1,1.3c-0.4,0.3-0.9,0.4-1.5,0.4    c-1,0-1.8-0.5-2.4-1.4c-0.7-1-1-2.2-1-3.7c0-1.7,0.3-3.1,1-4.1c0.6-1,1.5-1.5,2.6-1.5C181.4,46.4,181.9,46.5,182.3,46.8z     M182.8,54.1c0.3-0.6,0.5-1.3,0.5-2.2c0-1.3-0.3-2.1-0.8-2.7c-0.3-0.3-0.7-0.5-1.1-0.5c-0.6,0-1.1,0.3-1.4,0.9    c-0.3,0.6-0.4,1.3-0.4,2.2c0,0.9,0.1,1.7,0.4,2.3c0.3,0.6,0.7,0.8,1.4,0.8C182,54.9,182.5,54.6,182.8,54.1z"></path>
		<path class="st0" d="M196,46.8c0.4,0.3,0.7,0.6,0.9,1.1V43h2.2v13.8H197v-1.4c-0.3,0.6-0.7,1-1,1.3c-0.4,0.3-0.9,0.4-1.5,0.4    c-1,0-1.8-0.5-2.4-1.4c-0.7-1-1-2.2-1-3.7c0-1.7,0.3-3.1,1-4.1c0.6-1,1.5-1.5,2.6-1.5C195.1,46.4,195.6,46.5,196,46.8z     M196.5,54.1c0.3-0.6,0.5-1.3,0.5-2.2c0-1.3-0.3-2.1-0.8-2.7c-0.3-0.3-0.7-0.5-1.1-0.5c-0.6,0-1.1,0.3-1.4,0.9    c-0.3,0.6-0.4,1.3-0.4,2.2c0,0.9,0.1,1.7,0.4,2.3c0.3,0.6,0.7,0.8,1.4,0.8C195.7,54.9,196.2,54.6,196.5,54.1z"></path>
		<path class="st0" d="M206.4,46.8c0.6,0.3,1,0.8,1.4,1.5c0.3,0.6,0.6,1.3,0.7,2.1c0.1,0.5,0.1,1.1,0.1,2h-6c0,1,0.3,1.7,0.9,2.2    c0.3,0.3,0.7,0.4,1.2,0.4c0.5,0,0.9-0.2,1.2-0.5c0.2-0.2,0.3-0.4,0.4-0.7h2.2c-0.1,0.6-0.3,1.2-0.8,1.8c-0.7,1-1.8,1.5-3.1,1.5    c-1.1,0-2-0.4-2.9-1.3c-0.8-0.8-1.2-2.2-1.2-4.1c0-1.8,0.4-3.1,1.1-4.1c0.8-0.9,1.7-1.4,2.9-1.4C205.1,46.3,205.8,46.5,206.4,46.8    z M203.2,49.1c-0.3,0.4-0.5,0.9-0.6,1.6h3.7c0-0.7-0.2-1.2-0.6-1.6c-0.3-0.4-0.8-0.6-1.3-0.6C203.9,48.5,203.5,48.7,203.2,49.1z"></path>
		<path class="st0" d="M215.1,44.5c0.9-1.1,2-1.7,3.4-1.7c1.8,0,3.2,0.8,4,2.3c0.5,0.9,0.7,1.7,0.8,2.6H221    c-0.1-0.7-0.3-1.2-0.6-1.5c-0.4-0.6-1-0.9-1.8-0.9c-0.8,0-1.5,0.4-1.9,1.3c-0.5,0.8-0.7,2-0.7,3.6c0,1.6,0.3,2.7,0.8,3.5    c0.5,0.8,1.1,1.2,1.9,1.2c0.8,0,1.4-0.3,1.8-1c0.2-0.4,0.4-0.9,0.6-1.6h2.3c-0.2,1.5-0.7,2.7-1.5,3.7s-1.9,1.4-3.1,1.4    c-1.6,0-2.8-0.6-3.7-1.9c-0.9-1.3-1.4-3-1.4-5.3C213.6,47.6,214.1,45.8,215.1,44.5z"></path>
		<path class="st0" d="M231.8,55.6c-0.7,1.1-1.7,1.6-3.1,1.6c-1.4,0-2.5-0.5-3.1-1.6c-0.7-1.1-1-2.3-1-3.8c0-1.5,0.3-2.8,1-3.8    c0.7-1.1,1.7-1.6,3.1-1.6c1.4,0,2.5,0.5,3.1,1.6c0.7,1.1,1,2.4,1,3.8C232.9,53.2,232.5,54.5,231.8,55.6z M230.1,54.1    c0.3-0.6,0.5-1.3,0.5-2.4c0-1-0.2-1.8-0.5-2.4c-0.3-0.6-0.8-0.8-1.4-0.8s-1.1,0.3-1.4,0.8c-0.3,0.6-0.5,1.3-0.5,2.4    c0,1,0.2,1.8,0.5,2.4c0.3,0.6,0.8,0.8,1.4,0.8S229.8,54.7,230.1,54.1z"></path>
		<path class="st0" d="M241,47.2c0.5,0.6,0.8,1.5,0.8,2.8v6.9h-2.2v-6.2c0-0.5-0.1-1-0.2-1.2c-0.2-0.5-0.6-0.8-1.2-0.8    c-0.7,0-1.2,0.4-1.5,1.2c-0.1,0.4-0.2,0.9-0.2,1.6v5.5h-2.1V46.6h2.1v1.5c0.3-0.5,0.5-0.9,0.8-1.1c0.4-0.4,1-0.6,1.7-0.6    C239.8,46.4,240.5,46.6,241,47.2z"></path>
		<path class="st0" d="M248.7,50.3c0-0.4-0.1-0.7-0.3-1c-0.2-0.4-0.6-0.6-1.1-0.6c-0.7,0-1.2,0.4-1.5,1.3c-0.1,0.5-0.2,1.1-0.2,1.9    c0,0.7,0.1,1.4,0.2,1.8c0.3,0.9,0.7,1.3,1.4,1.3c0.5,0,0.9-0.2,1.1-0.5c0.2-0.3,0.3-0.8,0.4-1.3h2.2c-0.1,0.8-0.3,1.6-0.7,2.3    c-0.7,1.2-1.7,1.8-3,1.8c-1.3,0-2.3-0.5-2.9-1.5c-0.6-1-0.9-2.2-0.9-3.8c0-1.8,0.3-3.1,1-4.1c0.7-1,1.6-1.5,2.8-1.5    c1,0,1.9,0.3,2.5,0.9c0.7,0.6,1,1.6,1.2,3H248.7z"></path>
		<path class="st0" d="M257.7,46.8c0.6,0.3,1,0.8,1.4,1.5c0.3,0.6,0.6,1.3,0.7,2.1c0.1,0.5,0.1,1.1,0.1,2h-6c0,1,0.3,1.7,0.9,2.2    c0.3,0.3,0.7,0.4,1.2,0.4c0.5,0,0.9-0.2,1.2-0.5c0.2-0.2,0.3-0.4,0.4-0.7h2.2c-0.1,0.6-0.3,1.2-0.8,1.8c-0.7,1-1.8,1.5-3.1,1.5    c-1.1,0-2-0.4-2.9-1.3c-0.8-0.8-1.2-2.2-1.2-4.1c0-1.8,0.4-3.1,1.1-4.1c0.8-0.9,1.7-1.4,2.9-1.4C256.5,46.3,257.1,46.5,257.7,46.8    z M254.5,49.1c-0.3,0.4-0.5,0.9-0.6,1.6h3.7c0-0.7-0.2-1.2-0.6-1.6c-0.3-0.4-0.8-0.6-1.3-0.6C255.2,48.5,254.8,48.7,254.5,49.1z"></path>
		<path class="st0" d="M267.8,47.7c0.7,0.9,1,2.2,1,3.9c0,1.8-0.3,3.2-1,4.1c-0.7,0.9-1.5,1.4-2.5,1.4c-0.7,0-1.2-0.2-1.6-0.6    c-0.2-0.2-0.5-0.6-0.7-1v5.3h-2.1V46.6h2v1.5c0.2-0.4,0.5-0.8,0.7-1.1c0.5-0.5,1-0.7,1.7-0.7C266.3,46.4,267.2,46.8,267.8,47.7z     M266.2,49.6c-0.3-0.6-0.8-0.9-1.4-0.9c-0.8,0-1.3,0.5-1.6,1.4c-0.2,0.5-0.2,1.1-0.2,1.9c0,1.2,0.3,2,0.8,2.5    c0.3,0.3,0.7,0.4,1.1,0.4c0.6,0,1.1-0.3,1.4-0.9c0.3-0.6,0.5-1.3,0.5-2.3C266.6,50.9,266.5,50.2,266.2,49.6z"></path>
		<path class="st0" d="M275.2,50.3c0-0.4-0.1-0.7-0.3-1c-0.2-0.4-0.6-0.6-1.1-0.6c-0.7,0-1.2,0.4-1.5,1.3c-0.1,0.5-0.2,1.1-0.2,1.9    c0,0.7,0.1,1.4,0.2,1.8c0.3,0.9,0.7,1.3,1.4,1.3c0.5,0,0.9-0.2,1.1-0.5c0.2-0.3,0.3-0.8,0.4-1.3h2.2c-0.1,0.8-0.3,1.6-0.7,2.3    c-0.7,1.2-1.7,1.8-3,1.8s-2.3-0.5-2.9-1.5c-0.6-1-0.9-2.2-0.9-3.8c0-1.8,0.3-3.1,1-4.1c0.7-1,1.6-1.5,2.8-1.5c1,0,1.9,0.3,2.5,0.9    c0.7,0.6,1,1.6,1.2,3H275.2z"></path>
		<path class="st0" d="M281.1,45.4h-2.2v-2.5h2.2V45.4z M278.9,46.6h2.2v10.2h-2.2V46.6z"></path>
		<path class="st0" d="M290,55.6c-0.7,1.1-1.7,1.6-3.1,1.6c-1.4,0-2.5-0.5-3.1-1.6c-0.7-1.1-1-2.3-1-3.8c0-1.5,0.3-2.8,1-3.8    c0.7-1.1,1.7-1.6,3.1-1.6c1.4,0,2.5,0.5,3.1,1.6c0.7,1.1,1,2.4,1,3.8C291.1,53.2,290.7,54.5,290,55.6z M288.3,54.1    c0.3-0.6,0.5-1.3,0.5-2.4c0-1-0.2-1.8-0.5-2.4c-0.3-0.6-0.8-0.8-1.4-0.8c-0.6,0-1.1,0.3-1.4,0.8c-0.3,0.6-0.5,1.3-0.5,2.4    c0,1,0.2,1.8,0.5,2.4c0.3,0.6,0.8,0.8,1.4,0.8C287.5,54.9,288,54.7,288.3,54.1z M289.4,42.4l-2.3,2.8h-1.5l1.4-2.8H289.4z"></path>
		<path class="st0" d="M299.2,47.2c0.5,0.6,0.8,1.5,0.8,2.8v6.9h-2.2v-6.2c0-0.5-0.1-1-0.2-1.2c-0.2-0.5-0.6-0.8-1.2-0.8    c-0.7,0-1.2,0.4-1.5,1.2c-0.1,0.4-0.2,0.9-0.2,1.6v5.5h-2.1V46.6h2.1v1.5c0.3-0.5,0.5-0.9,0.8-1.1c0.4-0.4,1-0.6,1.7-0.6    C298,46.4,298.7,46.6,299.2,47.2z"></path>
	</g>
	<g>
		<rect x="78" y="0.9" class="st0" width="0.8" height="72.6"></rect>
	</g>
	<g>
		<polygon class="st0" points="31.9,27.2 26.6,27.2 26.1,28.4 32.5,28.4   "></polygon>
		<polygon class="st0" points="32.4,29.6 26.2,29.6 25.6,30.8 32.9,30.8   "></polygon>
		<polygon class="st0" points="31.2,35.7 32,32 26.6,32 27.4,35.7   "></polygon>
		<path class="st0" d="M29.3,40.5c-1.1,0-1.9,0.9-1.8,2l1.4,12.7c-0.3,0.1-0.6,0.5-0.6,0.8c0,0.4,0.3,0.7,0.6,0.9    c0.1,0,0.2,0.1,0.3,0.1c0,0,0,0,0,0s0,0,0,0c0.5,0,0.9-0.4,0.9-0.9c0-0.4-0.2-0.7-0.6-0.8l1.4-12.7C31.2,41.5,30.4,40.5,29.3,40.5    z"></path>
		<path class="st0" d="M25.4,39c0.3,0,0.5-0.1,0.7-0.3h6.4c0.2,0.2,0.4,0.3,0.7,0.3c0.5,0,0.9-0.4,0.9-0.9c0-0.5-0.4-0.9-0.9-0.9    c-0.3,0-0.5,0.1-0.7,0.3h-6.4c-0.2-0.2-0.4-0.3-0.7-0.3c-0.5,0-0.9,0.4-0.9,0.9C24.5,38.6,24.9,39,25.4,39z"></path>
		<path class="st0" d="M26,25.4h6.6c2.5-2.3,0-4.6,0.6-5.6c-0.7,0.2-0.8,1.4-1.3,2c-0.9-2,1.2-3.8-0.7-6.1c0.1,1.9-1.7,2.5-1.9,5.3    c-0.8-1.6,0.4-3.1-0.8-4.8c-0.2,1.5-1.9,2.3-1.7,4.9c-0.9-0.4-0.8-1.4-1.6-1.6C25.8,20.9,23.6,23.3,26,25.4z"></path>
		<path class="st0" d="M0,0v43.6c0,16.2,13.1,29.3,29.3,29.3c0,0,0,0,0,0v0c16.2,0,29.3-13.1,29.3-29.3V12.7V0H0z M50.8,5.2l0.9-2.7    l0.9,2.7l2.9,0l-2.3,1.7L54,9.6L51.6,8l-2.3,1.7l0.9-2.7l-2.3-1.7H50.8z M50.8,17.9l0.9-2.7l0.9,2.7l2.9,0l-2.3,1.7l0.9,2.7    l-2.3-1.7l-2.3,1.7l0.9-2.7l-2.3-1.7H50.8z M53.7,44.8c-0.8,0.5-1.5,1.1-2.2,1.7c-0.3-0.6-0.6-1.1-0.9-1.5    c0.3-1.4,0.9-2.8,1.7-3.5C52.9,42.3,53.5,43.5,53.7,44.8z M46.6,49.9c0.3,0.3,0.5,0.7,0.7,1.2c0.1,0.1,0.1,0.2,0.2,0.4    c0,0,0,0.1-0.1,0.1c-0.1,0.3-0.3,0.5-0.4,0.8c-0.6,1.3-0.9,2.7-1,4c-0.4,0.2-0.9,0.4-1.2,0.6c-0.5-2.1,0.2-5.8,1.6-7.3    C46.5,49.7,46.6,49.8,46.6,49.9z M47.7,53.7c0.1-0.2,0.2-0.5,0.3-0.7c0,0,0-0.1,0-0.1c0.1-0.2,0.2-0.4,0.3-0.6    c0-0.1,0.1-0.1,0.1-0.2c0.1-0.2,0.2-0.4,0.4-0.7c0.3-0.5,0.6-0.9,0.9-1.2c0.1-0.1,0.2-0.2,0.3-0.3c0.2,0.3,0.4,0.8,0.6,1.3    c0,0.1,0.1,0.2,0.1,0.2c0.1,0.2,0.1,0.4,0.1,0.6c0,0.2,0.1,0.4,0.1,0.6c0,0.2,0.1,0.5,0.1,0.7c0,0.2,0,0.4,0,0.6    c0,0.2,0,0.4,0,0.6c0,0.2,0,0.3,0,0.5c-0.5,0-1,0-1.5,0.1c-0.2,0-0.4,0-0.6,0.1c-0.2,0-0.4,0.1-0.6,0.1c-0.1,0-0.1,0-0.2,0    c-0.2,0-0.4,0.1-0.7,0.2c-0.1,0-0.2,0.1-0.3,0.1c0.1-0.5,0.2-0.9,0.3-1.4C47.5,54.2,47.6,54,47.7,53.7z M39.6,5.2l0.9-2.7l0.9,2.7    l2.9,0l-2.3,1.7l0.9,2.7L40.5,8l-2.3,1.7L39,6.9l-2.3-1.7H39.6z M28.4,5.2l0.9-2.7l0.9,2.7l2.9,0l-2.3,1.7l0.9,2.7L29.3,8L27,9.6    l0.9-2.7l-2.3-1.7H28.4z M17.2,5.2l0.9-2.7L19,5.2l2.9,0l-2.3,1.7l0.9,2.7L18.1,8l-2.3,1.7l0.9-2.7l-2.3-1.7H17.2z M13.9,12.7    h30.9v32c0,8.5-6.9,15.4-15.4,15.4v0c0,0,0,0,0,0c-8.5,0-15.4-6.9-15.4-15.4V12.7z M43.7,60.8c0,0.2,0,0.4,0,0.6    c-0.8-0.2-1.6-0.4-2.3-0.4c-0.2,0-0.4,0-0.6,0c-0.1,0-0.1,0-0.2,0c-0.2,0-0.3,0-0.5,0c0,0,0,0,0,0c0.5-1.9,1.5-3.9,2.6-4.7    c0.3,0.5,0.6,1.2,0.8,2c0,0.1,0,0.2,0.1,0.3c0,0.2,0.1,0.4,0.1,0.6c0,0.2,0,0.4,0,0.6C43.7,60.1,43.7,60.5,43.7,60.8z M15,60    c0-0.3,0-0.5,0-0.8c0,0,0,0,0,0c0,0,0,0,0,0c0-0.3,0-0.5,0.1-0.8c0-0.2,0.1-0.5,0.1-0.7c0.1-0.5,0.2-0.9,0.4-1.3    c0-0.1,0.1-0.2,0.1-0.2c0.2,0.1,0.3,0.2,0.5,0.4c1,0.9,2,2.5,2.6,4.1c-0.9-0.2-1.8-0.3-2.5-0.3c-0.2,0-0.3,0-0.5,0    c0,0-0.1,0-0.1,0c-0.2,0-0.4,0-0.6,0c0,0,0,0,0,0l0,0C15,60.2,15,60.1,15,60z M11.9,51.9c0.2-0.6,0.5-1.1,0.8-1.5    c0,0,0.1,0.1,0.1,0.1c1,1,1.8,2.9,2.1,4.8l-0.2,0.3c-0.2,0.4-0.4,0.9-0.5,1.4c-0.3-0.2-0.6-0.3-1-0.4    C13.2,55.2,12.6,53.5,11.9,51.9C11.8,51.9,11.9,51.9,11.9,51.9z M12,56.2c-0.2-0.1-0.4-0.1-0.6-0.2c-0.1,0-0.1,0-0.2,0    c-0.1,0-0.2-0.1-0.4-0.1c-0.1,0-0.1,0-0.2,0c-0.1,0-0.2,0-0.4-0.1c-0.1,0-0.1,0-0.2,0c-0.6-0.1-1.1-0.1-1.6-0.1    c-0.1,0-0.2,0-0.3,0c-0.2-0.8-0.2-1.6-0.3-2.4c0-0.2,0-0.4,0-0.6c0-0.1,0-0.1,0-0.2c0-0.1,0-0.2,0-0.3c0-0.1,0-0.1,0-0.2    c0-0.1,0-0.1,0-0.2c0-0.1,0-0.2,0-0.3c0-0.2,0.1-0.4,0.1-0.5c0,0,0-0.1,0-0.1c0.1-0.3,0.2-0.7,0.3-0.9c0,0,0,0,0,0c0,0,0,0,0,0    c0-0.1,0.1-0.2,0.1-0.3c0,0,0.1,0,0.1,0.1C8.8,49.9,9,50,9.1,50.2c0.1,0.1,0.3,0.3,0.4,0.4c0.2,0.2,0.4,0.5,0.6,0.8    c0.1,0.2,0.2,0.3,0.3,0.5c0,0.1,0.1,0.1,0.1,0.2c0.1,0.1,0.1,0.2,0.2,0.3c0.1,0.1,0.1,0.3,0.2,0.4c0.1,0.3,0.3,0.6,0.4,0.9    C11.7,54.6,12,55.4,12,56.2z M11.7,49.8c-0.2,0.3-0.4,0.6-0.6,1c-0.3-0.4-0.6-0.9-1-1.2c-0.2-0.2-0.3-0.3-0.5-0.4    c-0.1-0.1-0.3-0.3-0.4-0.3l-0.1,0l-1-0.6l-0.6,1c-0.2,0.3-0.3,0.7-0.5,1.1c-0.1-0.1-0.3-0.2-0.4-0.3C6.2,49,5.9,47.8,5.9,47    c0.7,0.1,1.6,0.4,2.4,1c0.2-0.7,0.5-1.3,0.8-1.9c0.1-0.3,0.3-0.5,0.4-0.7c0.1-0.2,0.3-0.4,0.4-0.6c0.2-0.2,0.3-0.4,0.5-0.5    C11.5,45.4,11.9,47.8,11.7,49.8z M5.2,49.4c-0.3-0.1-0.6-0.2-0.9-0.3c-0.9-1.9-1.3-4.4-0.9-5.9c0.7,0.3,1.5,0.8,2.2,1.6    C5.9,43.4,6.3,42,7,41.2c0.7,0.7,1.4,1.9,1.8,3.2c-0.4,0.6-0.8,1.3-1.1,1.9c-0.5-0.2-1.1-0.4-1.7-0.5l-1.2-0.1l-0.1,1.2    C4.7,47.6,4.9,48.5,5.2,49.4z M6,5.2l0.9-2.7l0.9,2.7l2.9,0L8.4,6.9l0.9,2.7L6.9,8L4.6,9.6l0.9-2.7L3.2,5.2H6z M6,17.9l0.9-2.7    l0.9,2.7l2.9,0l-2.3,1.7l0.9,2.7l-2.3-1.7l-2.3,1.7l0.9-2.7l-2.3-1.7H6z M3.3,50.1c0.1,0,0.2,0,0.3,0c0.2,0,0.5,0.1,0.7,0.1    c0.3,0.1,0.6,0.2,0.9,0.3c0.2,0.1,0.4,0.2,0.7,0.3c0.3,0.2,0.6,0.3,1,0.5c0,0,0.1,0,0.1,0.1c0,0,0,0.1,0,0.1c0,0,0,0.1,0,0.1    c0,0.2-0.1,0.4-0.1,0.6c0,0.1,0,0.2,0,0.2c0,0.1,0,0.2,0,0.3c0,1,0,2,0.2,3c-0.2,0-0.3,0.1-0.5,0.1C4.9,54.4,3.3,51.8,3.3,50.1z     M6.4,57.2c0,0-0.1-0.1-0.1-0.1C6.5,57.1,6.7,57,7,57c0.1,0,0.2-0.1,0.3-0.1c0.2,0,0.4,0,0.6,0c0,0,0,0,0,0c0.2,0,0.4,0,0.6,0    c0,0,0,0,0,0c0.3,0,0.7,0,1,0.1c0.2,0,0.4,0,0.7,0.1c0,0,0.1,0,0.1,0c0.2,0,0.3,0.1,0.5,0.1c0.1,0,0.1,0,0.2,0    c0.1,0,0.3,0.1,0.4,0.1c0.2,0.1,0.5,0.1,0.7,0.2c0.2,0.1,0.4,0.1,0.5,0.2c0.2,0.1,0.4,0.1,0.5,0.2c0.3,0.1,0.6,0.3,0.9,0.5    c0,0.4-0.1,0.8-0.1,1.2c0,0.2,0,0.4,0,0.6c0,0.1,0,0.3,0,0.4c-0.4,0.1-0.8,0.1-1.1,0.2c-0.5,0.1-0.9,0.3-1.3,0.4    C9.4,60.3,7.2,58.7,6.4,57.2z M16,64.9c-0.3-0.1-0.6-0.2-0.9-0.3c-1.6-0.5-3.1-1.3-3.8-2.3c0.1-0.1,0.2-0.1,0.3-0.2    c0.2-0.1,0.5-0.3,0.8-0.4c0.5-0.2,1-0.3,1.6-0.4c0.2,0,0.4-0.1,0.6-0.1c0.1,0,0.3,0,0.4,0c0.1,0,0.1,0,0.2,0c0.2,0,0.4,0,0.6,0    c0,0,0,0,0,0c1.2,0,2.4,0.2,3.3,0.5c0,0,0,0,0,0c0.1,0.6,0.4,1.3,0.6,1.9c0,0.1,0,0.1,0.1,0.2c0,0-0.1,0-0.1,0    c-0.2,0-0.4,0.1-0.6,0.1c-0.8,0.2-1.6,0.4-2.2,0.7c-0.1,0.1-0.2,0.1-0.3,0.2C16.3,65,16.2,65,16,64.9z M38.6,67.8    c-1.7,0-3.6-0.4-4.4-1.2c-0.9,0.1-2,0.3-3.1,0.8c0.2,0.1,0.4,0.3,0.6,0.4c0.2,0.1,0.4,0.3,0.6,0.4c0.5,0.4,0.7,0.6,0.7,0.6    s-0.5,0.1-1.5,0.8c-0.3-0.3-0.6-0.5-0.9-0.8c-0.2-0.1-0.3-0.3-0.5-0.4c-0.2-0.1-0.4-0.2-0.5-0.4c-1,0.5-1.8,1.2-2.5,1.8    c-0.8-0.5-1.5-0.6-1.5-0.6s0.9-1,2.7-2c-0.2-0.1-0.4-0.2-0.6-0.3c-0.2-0.1-0.4-0.2-0.7-0.3c-0.4-0.1-0.8-0.2-1.1-0.3    c-0.2,0-0.4-0.1-0.6-0.1c-0.2,0-0.4-0.1-0.6-0.1c0,0.2-0.1,0.4-0.2,0.5c0,0,0,0,0,0c0,0,0,0-0.1,0.1c-0.5,0.6-1.7,0.8-3.1,0.8    c-1.8,0-3.8-0.5-4.8-1.3c0-0.1,0.1-0.1,0.2-0.1c0,0,0.1-0.1,0.1-0.1c0.2-0.1,0.4-0.3,0.7-0.4c0.6-0.3,1.4-0.5,2.2-0.6    c0.3-0.1,0.5-0.1,0.8-0.2c0.3,0,0.5-0.1,0.8-0.1c0,0,0,0,0.1,0c0,0,0,0,0-0.1c-0.1-0.3-0.2-0.6-0.4-0.9c-0.3-0.6-0.5-1.3-0.7-1.9    c-0.1-0.3-0.1-0.6-0.2-0.8c-0.1-0.4-0.1-0.7,0-1c1.8,0.6,4.1,3.3,4.5,5.1c0.2,0,0.4,0,0.6,0.1c0.2,0,0.4,0.1,0.6,0.1    c0.9,0.1,1.7,0.4,2.4,0.6c0.3,0.1,0.5,0.2,0.7,0.3c0.3,0.1,0.5,0.2,0.7,0.3c1.2-0.5,2.5-0.9,4.1-1c0-1.8,2.4-5,4.3-5.6    c0.1,0.4,0.1,0.9,0.1,1.4c0,0.2,0,0.5-0.1,0.7c-0.1,0.8-0.4,1.5-0.7,2.3c0,0.1-0.1,0.2-0.1,0.3c0.1,0,0.2,0.1,0.4,0.1    c0.9,0.3,1.8,0.8,2.5,1.3c0.3,0.2,0.6,0.4,0.8,0.7c0.1,0.2,0.3,0.3,0.4,0.5C40.7,67.7,39.7,67.8,38.6,67.8z M43.1,65.7    c-0.3,0-0.7,0-1,0c-0.2,0-0.4,0-0.5,0c0,0-0.1-0.1-0.1-0.1c-0.6-0.5-1.3-0.9-2-1.3c-0.2-0.1-0.4-0.2-0.6-0.3    c0.1-0.4,0.2-0.8,0.3-1.2c0.1-0.2,0.1-0.5,0.1-0.7c0.2,0,0.3-0.1,0.5-0.1c0.1,0,0.2,0,0.3,0c0.1,0,0.3,0,0.4,0c0,0,0.1,0,0.2,0    c0.2,0,0.4,0,0.6,0c0.7,0.1,1.4,0.2,2.2,0.4c0.2,0.1,0.4,0.1,0.5,0.2c0.2,0.1,0.4,0.1,0.5,0.2c0.2,0.1,0.4,0.1,0.5,0.2    c0.3,0.1,0.6,0.3,0.8,0.4c0.2,0.1,0.5,0.3,0.7,0.4c0.2,0.2,0.4,0.3,0.5,0.5C46.2,65.2,44.7,65.6,43.1,65.7z M46.8,62.8    c-0.4-0.3-0.9-0.5-1.3-0.7c-0.2-0.1-0.5-0.2-0.7-0.3c0-0.2,0-0.4,0.1-0.5c0-0.2,0-0.5,0-0.7c0-0.3,0-0.6,0-0.9c0.1,0,0.3,0,0.4,0    c0.2,0,0.5,0,0.7,0c0.2,0,0.4,0,0.6,0c0.9,0.1,1.8,0.3,2.5,0.5c0.2,0.1,0.5,0.2,0.7,0.3c0.2,0.1,0.4,0.2,0.6,0.3c0,0,0,0,0.1,0    C49.6,61.7,48.2,62.3,46.8,62.8z M53,57.1c-0.5,0.7-1.3,1.5-2.2,2.1c-0.2,0.1-0.3,0.2-0.5,0.3c-0.2-0.1-0.4-0.2-0.5-0.3    c-0.4-0.2-0.8-0.3-1.2-0.4c-0.2-0.1-0.4-0.1-0.7-0.1c-0.3,0-0.5-0.1-0.8-0.1c-0.2,0-0.3,0-0.5-0.1c-0.1,0-0.2,0-0.2,0    c-0.1,0-0.2,0-0.3,0c-0.3,0-0.6,0-0.8,0c-0.1,0-0.2,0-0.3,0c-0.1,0-0.2,0-0.2,0c0,0,0.1-0.1,0.1-0.1c0.1-0.1,0.3-0.3,0.4-0.4    c0.2-0.2,0.5-0.3,0.8-0.5c0.2-0.1,0.4-0.2,0.5-0.2c0.1-0.1,0.3-0.1,0.4-0.2c0,0,0.1,0,0.1,0c0.1,0,0.3-0.1,0.4-0.1    c0.2-0.1,0.4-0.1,0.6-0.2c0,0,0.1,0,0.1,0c0.2,0,0.4-0.1,0.6-0.1c0.2,0,0.4-0.1,0.6-0.1c0.5-0.1,0.9-0.1,1.4-0.1    c0.1,0,0.2,0,0.2,0c0.1,0,0.2,0,0.3,0c0.2,0,0.4,0,0.6,0c0,0,0,0,0,0c0.2,0,0.5,0.1,0.7,0.1c0.2,0,0.4,0.1,0.5,0.1    C53.2,56.9,53.1,57,53,57.1z M55.2,51.3c-0.1,1.3-1.1,2.9-2.3,4.2c-0.3-0.1-0.6-0.1-0.9-0.2c0-0.3,0-0.6,0-0.9c0-0.2,0-0.4,0-0.6    c0-0.2,0-0.4-0.1-0.6c0-0.4-0.1-0.7-0.1-1.1c0.6-0.3,1.3-0.6,1.9-0.7c0.3-0.1,0.5-0.1,0.8-0.2C54.8,51.3,55,51.2,55.2,51.3    C55.2,51.2,55.2,51.2,55.2,51.3C55.2,51.3,55.2,51.3,55.2,51.3z M55,48.7c-0.2,0.5-0.3,1-0.5,1.5c-0.2,0-0.4,0-0.6,0.1    c-0.7,0.2-1.5,0.4-2.2,0.8c-0.1-0.2-0.1-0.3-0.2-0.5c-0.2-0.4-0.3-0.8-0.6-1.1l-0.6-0.9l-0.1-0.1l-0.5,0.4l-0.5,0.4c0,0,0,0,0,0    c-0.4,0.3-0.7,0.7-1,1.1c-0.1-0.3-0.3-0.5-0.4-0.8c0-1.8,0.3-3.7,1-4.8c0.2,0.1,0.4,0.3,0.6,0.5c0.2,0.2,0.3,0.4,0.5,0.6    c0.2,0.2,0.3,0.5,0.5,0.8c0.3,0.6,0.6,1.3,0.9,2c0.8-1,1.8-2,2.7-2.7c0.2-0.1,0.3-0.2,0.5-0.3c0.2-0.1,0.4-0.2,0.5-0.3    c0.1,0,0.2-0.1,0.4-0.1C55.6,46.2,55.4,47.5,55,48.7z"></path>
	</g>
</g>
</svg>
