<svg xmlns="http://www.w3.org/2000/svg" viewBox="0 0 1563 1563" width="1563" height="1563"><path d="M0 0h1563v1563H0z" id="svg-layer-0" style="pointer-events: all; fill: none;" fill="none"/><path fill="#E700DA" d="m742 503 2.562 1.154c28.755 13.03 55.272 29.877 80.67 48.549 2.08 1.526 4.17 3.038 6.26 4.55C841.938 564.849 852.097 572.713 862 581l1.92 1.603c6.33 5.305 12.501 10.653 18.271 16.573a157 157 0 0 0 6.121 5.824l1.926 1.75C892 608 892 608 895 608c1.875-1.984 1.875-1.984 4-4.75 3.4-4.302 6.893-8.42 10.625-12.437 3.093-3.333 6.158-6.68 9.125-10.125 9.521-10.946 20.733-19.941 32.25-28.688l1.894-1.442c39.41-29.704 89.826-51.063 139.606-50.933l2.389.002c13.058.04 25.438 1.024 38.111 4.373l2.378.601c18.252 4.738 36.568 12.986 51.622 24.399l1.712 1.281c7.263 5.456 14.061 11.08 20.288 17.719l2.563 2.563L1214 553l1.545 1.47c4.49 4.337 8.223 8.945 11.83 14.03l1.704 2.39c22.776 32.308 34.819 68.636 36.921 108.11l.121 2.104c1.486 29.612-6.28 59.42-19.121 85.896l-1.412 2.912c-18.82 38.312-46.848 65.37-87.494 79.908-4.97 1.658-9.995 2.985-15.094 4.18l-2.664.633c-28 6.302-59.412 5.59-87.336-.633l-2.568-.535C1003.495 843.603 960.406 817.81 922 790l-.788 2.53c-1.319 3.775-2.912 7.37-4.599 10.99l-1.01 2.188a4060 4060 0 0 1-3.29 7.105q-2.349 5.073-4.692 10.148l-1.195 2.586a1238 1238 0 0 0-7.078 15.617C885.118 873.1 869.989 904.994 852 935l-1.369 2.315C836.393 961.381 820.497 984.025 802 1005l-2.293 2.633A353 353 0 0 1 793 1015l-1.375 1.479c-47.177 50.259-124.068 73.43-191.454 75.647-4.202.093-8.405.12-12.609.124l-2.29.002c-81.041-.113-149.58-32.123-206.585-88.44-4.079-4.13-7.928-8.39-11.687-12.812l-2.418-2.719c-8.076-9.167-14.87-19.088-21.582-29.281l-1.323-1.978C329.046 938.086 318.703 917.404 311 896l-.892-2.406C298.178 861.193 292.444 826.476 292 792l-.04-2.817C291.602 741.636 301.038 691.88 322 649l.975-2.033c12.247-25.505 27.341-51.02 46.865-71.666 1.807-1.925 3.525-3.884 5.242-5.887 4.217-4.836 8.705-9.387 13.241-13.923 1.416-1.418 2.824-2.844 4.232-4.27C398.723 545.039 405.14 539.4 412 534l2.151-1.725C436.721 514.253 461.973 499.27 489 489l2.412-.917C573.368 457.381 663.305 467.206 742 503" id="svg-layer-1" style="pointer-events: all;"/><path fill="#5C08E6" d="M572 471v9l-2.209.38C534.13 486.573 534.13 486.573 519 494l2.84-.586c8.998-1.765 17.956-2.875 27.097-3.601l3.155-.254c6.32-.469 12.57-.635 18.908-.559l-1 16-5.035.445c-33.408 3.149-65.747 9.513-96.345 23.698C451.67 537 451.67 537 445 537v4c-2.048 1.578-3.966 2.84-6.187 4.125-7.357 4.491-14.121 9.45-20.813 14.875l-2.93 2.352c-5.407 4.56-8.126 7.845-10.07 14.648l-2 1-1-2c-4.773 4.27-4.773 4.27-5.875 7.813-1.634 4.628-4.784 7.667-8.125 11.187l-2-1c-11.467 15.248-20.968 31.7-29 49l-.987 2.12c-23.821 51.963-30.215 112.235-10.763 166.568C353.342 833.22 365.967 851.622 382 868l2.04 2.191c9.262 9.756 20.623 17.677 31.96 24.809l1.692 1.103C437.732 909.104 461.13 918.355 484 925l2.62.767c31.012 8.911 63.138 14.199 95.38 15.233l-2.156-.519q-4.83-1.171-9.657-2.356l-3.392-.816-3.252-.801-3-.73C558 935 558 935 555 933c4.962.496 9.84 1.125 14.75 2 45.718 7.735 90.847-5.579 128.4-31.722C716.36 890.282 733.65 873.95 747 856l1.487-1.96C774.848 819.294 796.685 781.518 817 743c17.057-.404 31.37 8.428 43.625 19.688A253 253 0 0 1 866 768l1.79 1.758c9.338 9.938 14.422 23.387 18.21 36.242l.593 2.01c1.489 5.276 2.478 10.592 3.407 15.99l.65 3.417c3.519 19.288 2.519 31.928-7.723 49.214-2.103 3.677-3.992 7.416-5.841 11.224l-.997 2.05-2.011 4.142A589 589 0 0 1 852 935l-1.4 2.377c-14.23 24.042-30.119 46.666-48.6 67.623l-2.293 2.633A353 353 0 0 1 793 1015l-1.375 1.479c-47.177 50.259-124.068 73.43-191.454 75.647-4.202.093-8.405.12-12.609.124l-2.29.002c-81.041-.113-149.58-32.123-206.585-88.44-4.079-4.13-7.928-8.39-11.687-12.812l-2.418-2.719c-8.076-9.167-14.87-19.088-21.582-29.281l-1.323-1.978C329.046 938.086 318.703 917.404 311 896l-.892-2.406C298.178 861.193 292.444 826.476 292 792l-.04-2.817C291.602 741.636 301.038 691.88 322 649l.975-2.033c12.247-25.505 27.341-51.02 46.865-71.666 1.807-1.925 3.525-3.884 5.242-5.887 4.217-4.836 8.705-9.387 13.241-13.923 1.416-1.418 2.824-2.844 4.232-4.27C398.723 545.039 405.14 539.4 412 534l2.151-1.725C436.721 514.253 461.973 499.27 489 489l2.412-.917C516.873 478.545 544.598 470.565 572 471" id="svg-layer-2" style="pointer-events: all;"/><path d="m636 600 2.162.422c44.105 8.716 83.713 32.275 119.806 58.153a143 143 0 0 0 5.598 3.702L766 664v2l4 1v2l2.066.66c3.797 1.734 6.673 4.128 9.871 6.778l4.024 3.277 2.046 1.671c2.42 1.96 4.874 3.871 7.334 5.779 6.039 4.683 11.889 9.543 17.666 14.543 5.794 5.01 11.614 10.04 17.993 14.292-1.367 4.438-3.114 8.432-5.238 12.559l-.961 1.87a1628 1628 0 0 1-3.114 6.009l-1.078 2.082c-6.136 11.843-12.561 23.5-19.222 35.057a484 484 0 0 0-3.735 6.653C788.595 796.646 778.617 812.55 768 828l-1.662 2.42C759.846 839.848 753.372 849.23 746 858l-2.187 2.742c-6.052 7.432-12.62 14.275-19.375 21.07l-2.65 2.678c-33.242 33.086-77.806 52.916-124.726 53.76-46.845-.793-86.61-20.338-121.062-51.25l-2.195-1.937c-31.323-29.357-45.758-73.17-47.707-114.954-1.429-45.475 15.816-89.833 46.265-123.453 3.046-3.082 6.331-5.86 9.637-8.656l3.875-3.5c4.465-3.886 9.178-7.256 14.125-10.5l3.234-2.125c15.169-9.666 32.22-16.882 49.766-20.875l2.57-.59c25.763-5.615 54.59-5.786 80.43-.41" id="svg-layer-3" style="pointer-events: all;"/><path fill="#280B9A" d="M700.076 533.164C702 534 702 534 705.5 535c8.446 2.413 16.192 6.794 24.004 10.742a625 625 0 0 0 9.273 4.578c11.37 5.537 22.27 11.633 33.01 18.311q2.27 1.404 4.567 2.765l2.224 1.334c.66.39 1.318.78 1.997 1.18L782 575v2h3v2l2 .625c5.62 2.576 9.882 4.756 12.402 10.66A134 134 0 0 1 802 600h2l.924 3.51c10.975 40.991 10.975 40.991 26.942 51.952 3.707 2.671 6.91 5.875 10.197 9.038a2095 2095 0 0 0 3.695 3.441c3.244 3.042 6.383 6.177 9.5 9.348 1.79 1.758 3.648 3.393 5.554 5.024 4.33 3.717 8.298 7.764 12.282 11.843 2.134 2.14 4.363 4.125 6.656 6.094 5.697 4.933 10.9 10.355 16.184 15.723 5.538 5.592 11.178 10.98 17.379 15.84 3.552 4.604 4.895 10.614 4.75 16.375C918 752 918 752 919 755.438c.875 3.118 1.024 4.499.813 7.562-.17 5.22 1.652 9.7 3.398 14.528 1.68 4.77 2.3 8.47 1.789 13.472l-3-1-.775 2.501c-1.384 3.952-3.057 7.684-4.823 11.476l-1.062 2.302q-1.698 3.675-3.403 7.346-2.318 5.01-4.632 10.023l-1.142 2.47a963 963 0 0 0-9.65 21.56c-2.296 5.213-2.296 5.213-4.513 6.322l-.196-2.42c-2.743-32.828-7.333-67.896-33.804-90.58-3.224-2.533-6.538-4.806-10-7l-2.39-1.617c-8.327-5.399-17.73-8.464-27.61-9.383 1.365-3.534 2.9-6.917 4.602-10.3l1.484-2.96 1.539-3.053 1.563-3.11q1.904-3.79 3.812-7.577l-1.822-.857c-3.107-1.63-5.608-3.916-8.24-6.206l-3.512-3.007-1.76-1.51c-4.16-3.547-8.415-6.98-12.666-10.42l-1.678-1.362c-7.282-5.905-14.639-11.694-22.135-17.326l-2.084-1.567c-4.844-3.616-4.844-3.616-7.103-4.745v-2l-4-1v-2l-2.098-.703c-3.5-1.564-6.324-3.724-9.34-6.047-53.755-40.246-118.957-67.49-187.071-58.123-33.071 5.394-66.896 19.438-90.003 44.475C476 645 476 645 474 645l-.746 1.723c-1.464 2.658-3.22 4.522-5.317 6.715-29.008 31.835-42.489 77.313-40.722 119.832C429.323 811.275 442.17 846.92 467 876l2.11 2.48c21.996 25.156 53.498 45.024 85.89 53.52v2l1.779.345c6.644 1.307 13.246 2.764 19.846 4.28l3.043.695L587 941v1c-7.026.09-13.942-.09-20.937-.75l-2.824-.267C524.732 937.156 486.609 929.47 451 914l-2.63-1.13c-9.483-4.093-18.688-8.242-27.37-13.87a936 936 0 0 0-3.762-2.273C404.22 888.849 393.046 879.409 382 869l-2.406-2.242c-30.499-29.317-45.432-73.006-46.844-114.551-.107-5.744.018-11.468.25-17.207l.113-2.904c2.04-44.736 18.68-88.74 43.2-125.908l1.489-2.265c2.747-4.074 5.493-7.677 9.198-10.923h2c3.223-2.96 5.663-5.946 7-10.125 1.401-4.028 3.605-5.365 7-7.875l1 2 3-7 2 2 1.738-1.695C424.275 557.528 439.584 546.75 456 538l2.151-1.15C478.366 526.24 500.66 519.446 523 515l2.306-.46c56.232-10.802 122.497-5.781 174.77 18.624" id="svg-layer-4" style="pointer-events: all;"/><path fill="#AB04E4" d="m1092.5 499.625 2.389.002c13.058.04 25.438 1.024 38.111 4.373l2.378.601c18.252 4.738 36.568 12.986 51.622 24.399l1.712 1.281c7.263 5.456 14.061 11.08 20.288 17.719l2.563 2.563L1214 553l1.545 1.47c4.49 4.337 8.223 8.945 11.83 14.03l1.704 2.39c22.776 32.308 34.819 68.636 36.921 108.11l.121 2.104c1.412 28.15-4.21 67.142-22.121 89.896.543-3.107 1.298-6.097 2.191-9.117 6.827-23.357 3.302-45.461-8.191-66.883-4.95-8.874-10.798-16.798-18-24l-1.852-1.852c-18.334-17.086-46.476-28.554-71.585-28.21l-2.622.027L1142 641c.315.536.63 1.072.953 1.625 9.597 17.575 10.809 38.28 5.367 57.402-3.487 11.011-9.02 19.927-17.32 27.973l-1.707 1.734c-14.806 13.977-36.288 14.932-55.484 14.402-48.226-2.339-89.96-33.403-121.426-67.91-1.815-2.058-3.601-4.139-5.383-6.226l-3.105-3.617Q939.442 661.195 935 656c3.748-8.25 10.817-15.024 16.863-21.645a249 249 0 0 0 5.387-6.168c8.417-9.624 17.633-18.372 27.75-26.187l2.824-2.234A181 181 0 0 1 1005 588l1.925-1.17c3.086-1.826 5.558-2.95 9.075-3.83l-12-36c-8.922 4.46-8.922 4.46-11.875 6.75C989 556 989 556 987 556v2c-1.617 1.191-1.617 1.191-3.875 2.563-5.58 3.585-10.266 7.949-15.125 12.437-5.613 5-5.613 5-8 5l-.605 1.629c-2.002 3.403-4.775 5.701-7.707 8.308-10.658 9.596-10.658 9.596-14.375 14.375L935 605h-2l-.676 1.613c-1.776 3.2-4.119 5.829-6.511 8.574C921.38 620.342 917.104 625.58 913 631c-3.227-1.42-5.4-3.142-7.89-5.625l-2.15-2.14-2.21-2.235-2.258-2.234-2.133-2.141-1.954-1.96C893 613 893 613 893 611h2c.095-.567.19-1.134.29-1.719 2.532-8.128 11.344-15.256 17.105-21.457a277 277 0 0 0 6.355-7.136c9.521-10.946 20.733-19.941 32.25-28.688l1.894-1.442c39.41-29.704 89.826-51.063 139.606-50.933" id="svg-layer-5" style="pointer-events: all;"/><path fill="#C703E3" d="M850 755c19.376 10.929 29.926 30.386 36 51l.593 2.01c1.489 5.276 2.478 10.592 3.407 15.99l.65 3.417c3.519 19.288 2.519 31.928-7.723 49.214-2.103 3.677-3.992 7.416-5.841 11.224l-.997 2.05-2.011 4.142A589 589 0 0 1 852 935l-1.4 2.377c-14.23 24.042-30.119 46.666-48.6 67.623l-2.293 2.633A353 353 0 0 1 793 1015l-1.375 1.479c-47.177 50.259-124.068 73.43-191.454 75.647-4.202.093-8.405.12-12.609.124l-2.29.002c-40.883-.057-80.815-7.747-118.272-24.252l2-1 .113-2.76c.598-12.692 2.011-25.275 3.471-37.892q.629-5.448 1.244-10.899.397-3.482.797-6.965l.373-3.273.354-3.048c.1-.88.202-1.758.307-2.664.345-2.527.814-5.004 1.341-7.499 3.268.68 5.97 1.871 8.945 3.371 25.983 12.899 52.027 22.29 80.368 28.379l2.78.603c14.762 3.032 29.433 4.061 44.47 4.022l2.503-.003c13.956-.048 27.338-1.003 40.934-4.372.937-.23 1.875-.461 2.84-.7 54.884-14.057 95.773-51.252 129.16-95.3-3.625 2.785-6.782 5.76-9.937 9.063C744.848 971.795 696.548 991.109 649 998l-2.38.355c-18.704 2.647-37.78 1.835-56.62 1.645 1-2 1-2 2.996-2.727l2.656-.683 3.003-.797 3.283-.856c12.55-3.392 24.771-7.46 37.003-11.85a574 574 0 0 1 8.532-2.946C685.134 967.225 721.34 947.399 752 922l1.623-1.315c8.06-6.537 15.515-13.624 22.877-20.935l2.573-2.545C789.845 886.378 789.845 886.378 792 882c-.29-3.3-.29-3.3-1.625-6.312C788 870.067 788 870.067 788 867c-5.68 4.815-10.937 9.914-16.125 15.25-6.683 6.767-13.533 12.906-21.204 18.523a334 334 0 0 0-4.913 3.696C731.16 915.429 714.976 924.327 698 931l-1.915.787C672.468 941.434 645.308 945.135 620 942v-1l2.19-.18c17.11-1.468 33.315-4.028 49.81-8.82l2.1-.584c39.495-11.102 72.925-37.275 101.462-65.791l2.67-2.633c6.03-6.016 11.465-12.333 16.768-18.992a918 918 0 0 1 3.3-3.977c7.739-9.344 14.875-18.995 21.7-29.023l1.56-2.292q4.611-6.799 9.107-13.674a536 536 0 0 1 2.521-3.814c7.538-11.308 12.093-23.566 16.812-36.22" id="svg-layer-6" style="pointer-events: all;"/><path fill="#5C08E6" d="M572 471v9l-2.209.38C534.13 486.573 534.13 486.573 519 494l2.84-.586c8.998-1.765 17.956-2.875 27.097-3.601l3.155-.254c6.32-.469 12.57-.635 18.908-.559l-1 16-5.035.445c-33.408 3.149-65.747 9.513-96.345 23.698C451.67 537 451.67 537 445 537v4c-2.048 1.578-3.966 2.84-6.187 4.125-7.357 4.491-14.121 9.45-20.813 14.875l-2.93 2.352c-5.407 4.56-8.126 7.845-10.07 14.648l-2 1-1-2c-4.773 4.27-4.773 4.27-5.875 7.813-1.634 4.628-4.784 7.667-8.125 11.187l-2-1c-11.467 15.248-20.968 31.7-29 49l-.987 2.12c-23.821 51.963-30.215 112.235-10.763 166.568C353.342 833.22 365.967 851.622 382 868l2.04 2.191c16.011 16.864 38.017 30.625 59.42 39.457 4.706 2.505 6.078 6.33 7.745 11.215l1.234 3.583 1.307 3.866q.684 2 1.371 4a3696 3696 0 0 1 3.59 10.54q1.806 5.305 3.623 10.605c3.933 11.5 7.842 23.008 11.67 34.543h-3v-2l-1.75-.375c-2.273-.631-4.175-1.514-6.25-2.625v-2h-3v-2h-3v-2h-3v-2l-4-1v-2h-3v-2l-5-2v-2l-4-1v-2l-2.375-.75c-3.09-1.471-3.162-2.323-4.625-5.25l-2.25-.812c-3.473-1.5-4.946-3.567-7.285-6.465C420 948 420 948 417.563 946.063c-3.026-2.436-5.34-5.212-7.848-8.165-2.033-2.25-4.337-4.025-6.715-5.898v-2h-2l-.288 2.758q-.567 5.43-1.137 10.859-.395 3.782-.788 7.564a2475 2475 0 0 1-2.867 26.279c-.486 4.211-.963 8.423-1.44 12.635q-.355 3.093-.722 6.184c-.344 2.9-.673 5.8-1 8.701l-.324 2.637c-.662 6.042-.662 6.042 1.566 9.383-3.123-1.386-5.242-2.995-7.645-5.414l-2.052-2.059-2.115-2.152-2.08-2.082c-4.567-4.605-8.878-9.38-13.108-14.293l-2.633-2.957C356.402 978.917 349.655 969.108 343 959l-1.323-1.978C329.046 938.086 318.703 917.404 311 896l-.892-2.406C298.178 861.193 292.444 826.476 292 792l-.04-2.817C291.602 741.636 301.038 691.88 322 649l.975-2.033c12.247-25.505 27.341-51.02 46.865-71.666 1.807-1.925 3.525-3.884 5.242-5.887 4.217-4.836 8.705-9.387 13.241-13.923 1.416-1.418 2.824-2.844 4.232-4.27C398.723 545.039 405.14 539.4 412 534l2.151-1.725C436.721 514.253 461.973 499.27 489 489l2.412-.917C516.873 478.545 544.598 470.565 572 471" id="svg-layer-7" style="pointer-events: all;"/><path fill="#9006CF" d="m592.375 469.75 2.43-.003c51.33.043 100.57 12.045 147.195 33.253l2.562 1.154C768.841 515.156 791.095 528.924 813 544l2.536 1.745c11.216 7.759 11.216 7.759 12.464 10.255-2.972-1.125-5.334-2.223-8-4-2.177 4.354-1.719 10.02-2.062 14.813l-.276 3.544c-.26 3.547-.467 7.093-.662 10.643l-.269 3.57c-.395 8.243-.395 8.243 1.398 11.446 1.525 1.62 3.058 2.884 4.871 4.172a394 394 0 0 1 6 4.812v2l1.71.648c3.08 1.818 4.724 4.158 6.915 6.977 3.798 4.725 7.698 8.523 12.55 12.195 3.511 2.71 6.855 5.584 10.2 8.492l1.94 1.686c5.097 4.45 10.092 9 15.06 13.592a294 294 0 0 0 6.563 5.847c9.12 7.92 17.851 16.294 26.668 24.546a645 645 0 0 0 10.894 9.955c3.35 2.99 6.548 6.079 9.691 9.284 1.773 1.743 3.603 3.37 5.489 4.989 5.13 4.461 10.039 9.144 14.965 13.828A417 417 0 0 0 966 732l1.682 1.462c49.072 42.632 49.072 42.632 68.415 49.256 2.944 1.983 3.502 4.9 4.481 8.153l.656 2.055q.68 2.15 1.34 4.305c.674 2.2 1.368 4.392 2.067 6.583q.658 2.091 1.312 4.182l.625 1.989c.852 2.794 1.422 5.073 1.422 8.015l3.902.836c4.937 1.097 9.796 2.412 14.66 3.789l2.479.695q2.98.838 5.959 1.68l.164 1.738c.48 4.727 1.181 9.22 2.399 13.824l.816 3.13L1079 846c-22.351.324-22.351.324-27-2l2 9c-8.416-.395-15.858-2.577-23.771-5.255a347 347 0 0 0-6.686-2.14c-29.186-9.366-56.521-25.23-82.02-41.971a262 262 0 0 0-6.96-4.33c-8.845-5.517-8.845-5.517-10.711-10.163-.477-3.016-.477-3.016-.633-6.059-.243-3.425-1.138-6.063-2.344-9.27-1.574-4.45-2.132-7.916-1.887-12.597.018-3.377-.757-6.52-1.488-9.805-.454-2.19-.729-4.31-.937-6.535-1.446-9.961-5.728-14.885-13.282-21.345-6.408-5.51-12.29-11.483-18.215-17.503-4.291-4.333-8.648-8.486-13.275-12.459-2.56-2.241-4.913-4.633-7.291-7.068-3.071-3.118-6.167-6.159-9.5-9-3.848-3.28-7.377-6.848-10.925-10.444-3.289-3.317-6.697-6.416-10.247-9.447-2.469-2.173-4.747-4.51-7.035-6.87-1.895-1.838-3.91-3.417-5.98-5.052-7.87-6.896-9.609-19.11-12.563-28.812l-1.246-4.055A4159 4159 0 0 1 804 603h-2l-.672-3.219c-1.927-8.007-3.484-13.11-10.64-17.656l-3.239-1.742L785 579v-2h-3v-2l-1.945-.664c-4.226-1.848-8.012-4.288-11.93-6.711a411 411 0 0 0-46.163-24.216c-4.858-2.202-4.858-2.202-5.962-4.409l-2.375.063C711 539 711 539 709 538v-2l-3 1v-2h-5v-2l-8-1v-2l-2.028-.54c-4.762-1.28-9.5-2.6-14.206-4.073C605.578 503.296 523.03 504.057 456 539c-15.155 8.075-28.605 18.186-41.766 29.16A145 145 0 0 1 408 573c-.66-1.809-.66-1.809-1-4 7.933-9.481 19.037-16.826 29.25-23.687l1.951-1.316C442.747 541 442.747 541 445 541v-4l2.578-.777a172 172 0 0 0 21.672-8.473c19.751-9.143 40.365-14.967 61.75-18.75l2.56-.476c12.126-2.242 24.122-3.148 36.44-3.524l-.035-2.23-.028-2.957-.035-2.918c.093-2.756.525-5.206 1.098-7.895q-7.065.541-14.13 1.117-2.392.192-4.785.375c-9.544.73-18.73 1.835-28.061 4.009-2.83.467-4.371.474-7.024-.501 16.518-7.728 36.512-14.69 55-14v-9c6.655-1.664 13.543-1.244 20.375-1.25" id="svg-layer-8" style="pointer-events: all;"/><path fill="#5009AC" d="M700.076 533.164C702 534 702 534 705.5 535c8.446 2.413 16.192 6.794 24.004 10.742a625 625 0 0 0 9.273 4.578c11.37 5.537 22.27 11.633 33.01 18.311q2.27 1.404 4.567 2.765l2.224 1.334c.66.39 1.318.78 1.997 1.18L782 575v2h3v2l2 .625c5.62 2.576 9.882 4.756 12.402 10.66A134 134 0 0 1 802 600h2l.924 3.51c10.975 40.991 10.975 40.991 26.942 51.952 3.707 2.671 6.91 5.875 10.197 9.038a2095 2095 0 0 0 3.695 3.441c3.244 3.042 6.383 6.177 9.5 9.348 1.79 1.758 3.648 3.393 5.554 5.024 4.33 3.717 8.298 7.764 12.282 11.843 2.134 2.14 4.363 4.125 6.656 6.094 5.697 4.933 10.9 10.355 16.184 15.723 5.538 5.592 11.178 10.98 17.379 15.84 3.552 4.604 4.895 10.614 4.75 16.375C918 752 918 752 919 755.438c.875 3.118 1.024 4.499.813 7.562-.17 5.22 1.652 9.7 3.398 14.528 1.68 4.77 2.3 8.47 1.789 13.472l-3-1-.775 2.501c-1.384 3.952-3.057 7.684-4.823 11.476l-1.062 2.302q-1.698 3.675-3.403 7.346-2.318 5.01-4.632 10.023l-1.142 2.47a963 963 0 0 0-9.65 21.56c-2.296 5.213-2.296 5.213-4.513 6.322l-.196-2.42c-2.743-32.828-7.333-67.896-33.804-90.58-3.224-2.533-6.538-4.806-10-7l-2.39-1.617c-8.327-5.399-17.73-8.464-27.61-9.383 1.365-3.534 2.9-6.917 4.602-10.3l1.484-2.96 1.539-3.053 1.563-3.11q1.904-3.79 3.812-7.577l-1.822-.857c-3.107-1.63-5.608-3.916-8.24-6.206l-3.512-3.007-1.76-1.51c-4.16-3.547-8.415-6.98-12.666-10.42l-1.678-1.362c-7.282-5.905-14.639-11.694-22.135-17.326l-2.084-1.567c-4.844-3.616-4.844-3.616-7.103-4.745l.063-3.656c-.058-14.554-.058-14.554-4.438-18.907A107 107 0 0 0 761 643a1111 1111 0 0 1-5.875-4.875l-2.805-2.242c-3.6-2.921-4.751-4.727-6.09-9.133l-.997-3.259-1.045-3.491-1.077-3.548a913 913 0 0 1-7.103-24.745L735 588l-.516-3.648c-2.304-5.203-6.34-6.505-11.359-8.79l-3-1.425C686.587 558.427 651.725 548.591 615 544l-2.332-.317c-23.184-2.803-48.786-2.03-71.668 2.317l-3.126.586c-31.95 6.208-68.02 18.863-91.245 42.797C444 592 444 592 442 592c-2.297-11.96-3.869-23.876-5-36-26.552 18.24-47.751 40.811-65 68l-1.11 1.714C357.026 647.169 346.69 671.376 340 696c-1.146-3.393-.84-5.49.152-8.902l.842-2.916.943-3.12.966-3.234C351.539 649.46 364.447 613.385 387 593h2c3.223-2.96 5.663-5.946 7-10.125 1.401-4.028 3.605-5.365 7-7.875l1 2 3-7 2 2 1.738-1.695C424.275 557.528 439.584 546.75 456 538l2.151-1.15C478.366 526.24 500.66 519.446 523 515l2.306-.46c56.232-10.802 122.497-5.781 174.77 18.624" id="svg-layer-9" style="pointer-events: all;"/><path fill="#E700DB" d="M764 961a6575 6575 0 0 1-3.092 29.333c-.634 5.97-1.232 11.942-1.808 17.917-.4 4.104-.816 8.206-1.236 12.307q-.3 2.998-.578 5.998c-.261 2.819-.55 5.634-.845 8.449l-.214 2.54c-.468 4.189-.892 6.047-3.641 9.4-42.89 34.098-111.835 45.263-165.023 45.306l-2.292.002c-40.882-.057-80.814-7.747-118.271-24.252l2-1 .113-2.76c.598-12.692 2.011-25.275 3.471-37.892q.629-5.448 1.244-10.899.397-3.482.797-6.965l.373-3.273.354-3.048c.1-.88.202-1.758.307-2.664.345-2.527.814-5.004 1.341-7.499 3.268.68 5.97 1.871 8.945 3.371 25.983 12.899 52.027 22.29 80.368 28.379l2.78.603c14.762 3.032 29.433 4.061 44.47 4.022l2.503-.003c13.956-.048 27.338-1.003 40.934-4.372.937-.23 1.875-.461 2.84-.7 38.348-9.822 72.57-31.804 99.918-60.16C762 961 762 961 764 961" id="svg-layer-10" style="pointer-events: all;"/><path d="M1115.785 612.305q1.617 1.337 3.215 2.695l1.628 1.345c15.675 13.086 27.84 29.952 30.372 50.655 1.286 19.21-1.168 38.175-13.207 53.879A119 119 0 0 1 1131 728l-1.707 1.734c-14.806 13.977-36.288 14.932-55.484 14.402C1035.87 742.296 998.1 722.172 972 695c1.625-4.952 4.488-8.815 7.5-13l1.627-2.276c7.605-10.59 15.434-20.8 24.452-30.236q1.425-1.493 2.834-3c22.276-23.79 75.893-58.48 107.372-34.183" id="svg-layer-11" style="pointer-events: all;"/><path fill="#0C0D75" d="M611 569c.058 3.937.094 7.875.125 11.813l.05 3.392.02 3.252.032 3C611 593 611 593 609 596c-2.245.353-2.245.353-5.082.336l-3.22.028-3.51.011c-42.356.88-87.504 14.279-117.875 45.25l-1.825 1.977C476 645 476 645 474 645l-.746 1.723c-1.464 2.658-3.22 4.522-5.317 6.715-29.008 31.835-42.489 77.313-40.722 119.832 2.39 43.087 18.79 81.63 48.785 112.73a107 107 0 0 0 3.563 3l2.437 2v2c-4.834-1.409-8.973-3.518-13.25-6.125l-2.006-1.218C461.12 882.182 456.021 878.302 451 874q-1.702-1.41-3.406-2.816c-26.5-22.04-43.164-51.02-49.867-84.72C397 783 397 783 396 781c-.381 20.743-.187 39.257 7.11 58.988C404 843 404 843 403 846c-10.228-20.078-17.45-40.72-21-63l-.35-2.027C373.843 735.01 385.34 688.393 405 647l1.2-2.564c5.55-11.813 11.587-23.226 19.8-33.436h2c1.872 10.31 3.6 20.613 5 31l1.766-3.043c5.084-8.554 10.516-15.972 17.472-23.09 1.915-1.987 3.678-3.93 5.418-6.054 2.603-3.124 5.112-5.371 8.344-7.813h2v-2c3.125-2.61 6.601-4.765 10-7l2.96-1.957C518.403 567.135 567.612 559.963 611 569" id="svg-layer-12" style="pointer-events: all;"/><path fill="#0A0C92" d="m719 573 2.304 1.068a306 306 0 0 1 6.321 3.057l1.884.873c3.278 1.689 4.375 2.648 5.538 6.196L736 588q1.884 6.53 3.776 13.059l1.187 4.1a1922 1922 0 0 0 2.914 9.994 387 387 0 0 1 2.137 7.565c2.958 10.49 2.958 10.49 7.736 14.157l2.645 2.125 2.605 2a389 389 0 0 1 4.438 3.875l1.87 1.617L767 648c.565.39 1.13.781 1.71 1.184 2.143 3.018 1.599 6.45 1.477 10.004l-.04 2.271c-.036 1.847-.09 3.694-.147 5.541l-4-1v-2l-2.098-.703c-3.5-1.564-6.324-3.724-9.34-6.047-46.082-34.501-98.664-58.295-156.624-59.812l-4.647-.131q-5.645-.159-11.291-.307v-1h27v-6h1l1-21h-2l-1 2v-2c-45.402-4.897-95.484-1.96-133.062 27.125l-2.786 2.258C470 600 470 600 468 600v2c-5.476 5-5.476 5-8 5l-.719 1.727c-1.56 2.767-3.451 4.488-5.781 6.648-7.413 7.252-13.127 15.691-18.562 24.5L433 643h-1l-.351-2.599q-.65-4.786-1.303-9.571l-.562-4.138q-.403-2.979-.811-5.958l-.492-3.618C428 614 428 614 427.355 611.721 427 610 427 610 428.344 607.73A308 308 0 0 1 436 599l1.597-1.766C464.575 567.765 502.422 552.354 541 545l2.846-.543C602.824 533.843 665.584 547.663 719 573" id="svg-layer-13" style="pointer-events: all;"/><path fill="#C703E3" d="m592.375 469.75 2.43-.003c51.33.043 100.57 12.045 147.195 33.253l2.562 1.154C768.841 515.156 791.095 528.924 813 544l2.536 1.745c11.216 7.759 11.216 7.759 12.464 10.255-2.972-1.125-5.334-2.223-8-4-2.177 4.354-1.719 10.02-2.062 14.813l-.276 3.544c-.26 3.547-.467 7.093-.662 10.643l-.269 3.57c-.395 8.243-.395 8.243 1.398 11.446 1.525 1.62 3.058 2.884 4.871 4.172a394 394 0 0 1 6 4.812v2l1.797.742c2.57 1.468 3.748 2.98 5.453 5.383l1.578 2.195L839 617c-4.046-1.71-7.207-4.485-10.562-7.25a525 525 0 0 0-18.25-14.125l-2.313-1.728C802.446 589.9 796.814 586.405 791 583a79 79 0 0 1-6-4v-2h-3v-2l-1.945-.664c-4.226-1.848-8.012-4.288-11.93-6.711a411 411 0 0 0-46.163-24.216c-4.858-2.202-4.858-2.202-5.962-4.409l-2.375.063C711 539 711 539 709 538v-2l-3 1v-2h-5v-2l-8-1v-2l-2.028-.54c-4.762-1.28-9.5-2.6-14.206-4.073C605.578 503.296 523.03 504.057 456 539c-15.155 8.075-28.605 18.186-41.766 29.16A145 145 0 0 1 408 573c-.66-1.809-.66-1.809-1-4 7.933-9.481 19.037-16.826 29.25-23.687l1.951-1.316C442.747 541 442.747 541 445 541v-4l2.578-.777a172 172 0 0 0 21.672-8.473c19.751-9.143 40.365-14.967 61.75-18.75l2.56-.476c12.126-2.242 24.122-3.148 36.44-3.524l-.035-2.23-.028-2.957-.035-2.918c.093-2.756.525-5.206 1.098-7.895q-7.065.541-14.13 1.117-2.392.192-4.785.375c-9.544.73-18.73 1.835-28.061 4.009-2.83.467-4.371.474-7.024-.501 16.518-7.728 36.512-14.69 55-14v-9c6.655-1.664 13.543-1.244 20.375-1.25" id="svg-layer-14" style="pointer-events: all;"/><path fill="#AE36E9" d="M863 767c9.933 4.275 15.016 17.568 19 27 7.197 18.783 16.278 47.704 9.078 67.445-2.359 5.267-5.212 10.226-8.151 15.186-2.103 3.677-3.992 7.416-5.841 11.224l-.997 2.05-2.011 4.142A589 589 0 0 1 852 935l-1.4 2.377c-13.854 23.406-29.227 45.643-47.223 66.058a681 681 0 0 0-3.986 4.585l-2.391 2.73-2.062 2.36c-1.917 1.87-3.541 2.765-5.938 3.89a697 697 0 0 1 2.395-27.84l.415-3.952c1.25-11.901 2.535-23.8 3.829-35.697q1.429-13.153 2.804-26.312.974-9.303 1.998-18.602c.405-3.69.801-7.38 1.177-11.072.42-4.114.878-8.223 1.34-12.333l.355-3.66c.902-7.652 2.912-12.521 7.687-18.532q1.251-1.83 2.465-3.684l1.21-1.828c12.17-18.568 22.815-38.036 32.933-57.78 2.27-4.417 4.58-8.813 6.892-13.208l1.204-2.3A368 368 0 0 1 863 767" id="svg-layer-15" style="pointer-events: all;"/><path fill="#090CE9" d="m1092.5 499.625 2.389.002c13.058.04 25.438 1.024 38.111 4.373l2.378.601c18.252 4.738 36.568 12.986 51.622 24.399l1.712 1.281c7.263 5.456 14.061 11.08 20.288 17.719l2.563 2.563L1214 553l1.545 1.47c4.49 4.337 8.223 8.945 11.83 14.03l1.704 2.39c22.776 32.308 34.819 68.636 36.921 108.11l.121 2.104c.655 13.057-1.38 25.987-3.121 38.896-3.467-3.82-4.684-8.359-6.266-13.16l-.938-2.787q-1.005-2.986-2-5.977c-1.791-5.375-3.606-10.742-5.417-16.111l-1.119-3.324c-3.45-10.24-6.997-20.444-10.572-30.641q-1.844-5.264-3.684-10.527l-.952-2.722c-5.516-15.788-10.961-31.602-16.411-47.414q-1.126-3.26-2.263-6.516a625 625 0 0 1-5.675-17.039l-1.16-3.578a363 363 0 0 1-2.12-6.767c-2.272-6.92-4.832-10.932-11.236-14.562-3.012-1.45-6.068-2.674-9.187-3.875a628 628 0 0 1-4.879-2.168c-16.786-7.34-34.373-11.169-52.344-14.33a496 496 0 0 1-8.527-1.639c-43.986-8.433-88.226 1.342-125.246 26.348C982.628 550.376 973.12 558.307 964 567l-2.516 2.32c-10.32 9.822-18.64 21.484-26.097 33.57-4.03 6.384-9.036 11.892-14.023 17.535-2.945 3.4-5.663 6.98-8.364 10.575-3.227-1.42-5.4-3.142-7.89-5.625l-2.15-2.14-2.21-2.235-2.258-2.234-2.133-2.141-1.954-1.96C893 613 893 613 893 611h2c.095-.567.19-1.134.29-1.719 2.532-8.128 11.344-15.256 17.105-21.457a277 277 0 0 0 6.355-7.136c9.521-10.946 20.733-19.941 32.25-28.688l1.894-1.442c39.41-29.704 89.826-51.063 139.606-50.933" id="svg-layer-16" style="pointer-events: all;"/><path fill="#5C07E6" d="M1137 520c14.696 1.555 28.849 5.944 42.375 11.813l2.01.855c2.257 1.024 4.423 2.176 6.615 3.332l3.374 1.516c8.141 4.031 11.943 8.555 14.966 17.132 1.285 3.886 2.444 7.801 3.598 11.727q.996 3.178 2.01 6.352 2.069 6.496 4.08 13.01c2.589 8.305 5.468 16.501 8.376 24.698 1.545 4.362 3.07 8.731 4.596 13.1l.952 2.722a5878 5878 0 0 1 7.86 22.677l1.248 3.617q3.106 9.005 6.2 18.012c6.632 19.281 6.632 19.281 10.205 28.804l.751 2.02c1.07 2.87 2.155 5.73 3.283 8.578 2.424 6.44 2.868 11.287 1.501 18.035l-.42 2.13c-.463 2.084-1.001 4.128-1.58 6.183l-.634 2.27c-3.208 10.892-7.25 23.44-14.366 32.417.543-3.107 1.298-6.097 2.191-9.117 6.827-23.357 3.302-45.461-8.191-66.883-4.95-8.874-10.798-16.798-18-24l-1.852-1.852c-16.667-15.532-41.318-26.504-64.128-27.437-12.308-.508-12.308-.508-16.079-4.438-2.61-3.233-4.742-6.753-6.941-10.273-5.09-6.159-11.35-10.527-17.95-14.922-2.801-1.909-5.434-3.923-8.05-6.078 39.37-.703 81.931 9.87 111 37.651 20.688 20.362 31.648 46.672 35 75.349-.49-9.367-2.091-18.366-4.125-27.5l-.469-2.125c-6.19-27.866-16.699-53.526-35.406-75.375l-2.148-2.52c-13.545-15.469-32.063-29.884-51.852-36.48a69 69 0 0 1-2.707-6.937l-.751-2.16c-.796-2.298-1.576-4.6-2.354-6.903q-.77-2.235-1.542-4.469a2323 2323 0 0 1-3.074-8.968 626 626 0 0 0-3.296-9.375l-.844-2.352a862 862 0 0 0-1.613-4.443c-1.056-2.938-1.819-5.245-1.819-8.393z" id="svg-layer-17" style="pointer-events: all;"/><path fill="#090CE9" d="M817 743c12.115-.328 22.394 3.557 32 11 1 2 1 2 .031 5.422-10.75 31.197-31.34 58.353-52.333 83.515a267 267 0 0 0-3.61 4.49c-5.876 7.39-12.277 14.102-18.96 20.761a969 969 0 0 0-5.384 5.43C760.966 881.437 752.82 888.383 744 895l-2.264 1.74c-13.059 10.018-26.901 18.26-41.76 25.32q-1.923.914-3.835 1.854C683.638 930.034 670.474 933.64 657 937l-2.25.58c-10.345 2.576-20.896 2.852-31.5 3.232l-2.14.085c-9.24.34-18.013-.12-27.11-1.897v-1l2.373-.18c59.087-4.683 105.07-29.699 144.412-73.883 2.164-2.588 4.202-5.23 6.215-7.937l1.487-1.96C774.848 819.294 796.685 781.518 817 743" id="svg-layer-18" style="pointer-events: all;"/><path fill="#E700DB" d="M1194 596c30.031 25.545 46.26 59.203 54.188 97.375l.787 3.691c1.84 8.722 3.187 16.955 3.088 25.871l-.014 2.362q-.02 2.85-.049 5.701h-1l-.262-3.418c-1.534-17.923-5.13-35.211-12.738-51.582l-.87-1.88c-4.704-9.978-10.648-18.057-18.13-26.12l-2.398-2.68c-15.154-16.16-36.487-25.695-57.602-31.32l-1.94-.542c-30.33-8.387-67.748-11.485-97.642-.228-2.418.77-2.418.77-6.418.77.628-10.52 1.753-20.922 3.063-31.375l.564-4.578q.681-5.524 1.373-11.047c42.907-17.762 101.75.89 136 29" id="svg-layer-19" style="pointer-events: all;"/><path fill="#AE36E9" d="M401 930c2 0 2 0 4.188 2.063q1.407 1.466 2.812 2.937 1.745 1.754 3.5 3.5l1.813 1.816a511 511 0 0 0 4.187 4.121c2.743 2.812 5.25 5.77 7.754 8.793 1.824 1.85 3.416 2.675 5.746 3.77 2.294 2.182 4.472 4.431 6.625 6.75C439 965 439 965 442 966q1.53 1.47 3 3l2 1v2h3v2l4 1v2h3v2h3v2h3v2l1.75.375c2.273.631 4.175 1.514 6.25 2.625v2l2.375.875C476 990 476 990 478 992c.002 1.903.002 1.903-.349 4.262l-.38 2.696-.447 2.952q-.445 3.156-.885 6.313l-.474 3.36c-.772 5.67-1.422 11.353-2.07 17.038l-.396 3.438q-.595 5.19-1.187 10.379l-.826 7.2Q469.99 1058.32 469 1067c-5.15-.738-9.149-2.337-13.687-4.812l-2.227-1.203C437.8 1052.601 423.55 1042.958 410 1032l-2.015-1.628a532 532 0 0 1-5.735-4.747l-1.698-1.404c-3.812-3.265-7.252-6.712-9.552-11.221-.207-2.998-.164-5.185.243-8.09l.259-2.354c.287-2.549.615-5.09.943-7.634q.314-2.664.62-5.33c.543-4.664 1.12-9.323 1.705-13.983.59-4.747 1.142-9.499 1.699-14.25.82-6.93 1.648-13.86 2.512-20.786l.268-2.2c.37-2.932.813-5.56 1.751-8.373" id="svg-layer-20" style="pointer-events: all;"/><path fill="#280B9A" d="M619 544c34.884 2.854 68.546 14.08 100 29l2.304 1.068a306 306 0 0 1 6.321 3.057l1.884.873c3.278 1.689 4.375 2.648 5.538 6.196L736 588q1.884 6.53 3.776 13.059l1.187 4.1a1922 1922 0 0 0 2.914 9.994 387 387 0 0 1 2.137 7.565c2.958 10.49 2.958 10.49 7.736 14.157l2.645 2.125 2.605 2a389 389 0 0 1 4.438 3.875l1.87 1.617L767 648c.565.39 1.13.781 1.71 1.184 2.143 3.018 1.599 6.45 1.477 10.004l-.04 2.271c-.036 1.847-.09 3.694-.147 5.541l-4-1v-2l-2.098-.703c-3.5-1.564-6.324-3.724-9.34-6.047C734.815 642.465 713.146 629.835 691 619l2-1-1.094-3.324-1.406-4.364-.723-2.185c-1.221-3.821-2.098-7.061-1.777-11.127 2.636 2.636 3.077 5.062 4.125 8.625l1.07 3.602L694 612c.055-1.562.093-3.125.125-4.687l.07-2.637c-.222-3.05-.788-4.956-2.195-7.676-2.23-1.602-2.23-1.602-5.047-2.98l-3.207-1.575-3.496-1.633-3.603-1.71c-16.59-7.727-34.13-12.917-51.647-18.102-1.57-7.256-2.605-14.502-3.437-21.875C621 546 621 546 619 544" id="svg-layer-21" style="pointer-events: all;"/><path fill="#050CE9" d="M572 471v9l-2.209.38C534.13 486.573 534.13 486.573 519 494l2.84-.586c8.998-1.765 17.956-2.875 27.097-3.601l3.155-.254c6.32-.469 12.57-.635 18.908-.559l-1 16-5.035.445c-33.255 3.134-65.268 9.51-95.77 23.483-6.914 3.15-13.86 5.806-21.07 8.197C426.113 544.509 406.197 555.593 388 570l-2.426 1.844C363.378 588.99 346.37 610.086 332 634l-1.777 2.957L329 639l-1-2a74 74 0 0 1 3.125-6.375l1.082-1.993c10.404-18.775 22.852-37.7 37.633-53.331 1.807-1.925 3.525-3.884 5.242-5.887 4.217-4.836 8.705-9.387 13.241-13.923 1.416-1.418 2.824-2.844 4.232-4.27C398.723 545.039 405.14 539.4 412 534l2.151-1.725C436.721 514.253 461.973 499.27 489 489l2.412-.917C516.873 478.545 544.598 470.565 572 471" id="svg-layer-22" style="pointer-events: all;"/><path fill="#C703E3" d="m1038 784 2.762 1.137c27.408 10.959 56.556 15.608 85.238 6.863 2.483 7.01 3.793 14.076 4.91 21.402.765 4.958 1.808 9.746 3.09 14.598h8c3 6.625 3 6.625 3 10-4.75 2-4.75 2-7 2l.875 2.555 1.125 3.32 1.125 3.305C1142 852 1142 852 1142 854q-3.75.722-7.5 1.438l-2.11.408-2.109.4-1.904.365a124 124 0 0 1-19.03 1.627l-2.454.03c-2.61.024-5.22.036-7.83.044l-2.688.012c-14.82.031-28.85-1.195-43.375-4.324l-1-10 27 2c-2.562-7.125-2.562-7.125-3.381-9.333-1.486-4.293-1.761-7.276-.619-11.667l-3.414-.43-2.22-.292a88 88 0 0 0-4.646-.424c-6.237-.472-11.998-1.52-16.72-5.854-5.308-9.413-10-23.18-10-34" id="svg-layer-23" style="pointer-events: all;"/><path fill="#050CE9" d="M340 799c1.648 2.472 2.493 4.12 3.41 6.852 8.282 23.974 20.846 44.023 38.59 62.148l2.04 2.191c16.011 16.864 38.017 30.625 59.42 39.457 4.706 2.505 6.078 6.33 7.745 11.215l1.234 3.583 1.307 3.866q.684 2 1.371 4a3696 3696 0 0 1 3.59 10.54q1.806 5.305 3.623 10.605c3.933 11.5 7.842 23.008 11.67 34.543h-3v-2l-1.75-.375c-2.273-.631-4.175-1.514-6.25-2.625v-2h-3v-2h-3v-2h-3v-2l-4-1v-2h-3v-2l-5-2v-2l-4-1v-2l-2.375-.75c-3.09-1.471-3.162-2.323-4.625-5.25l-2.25-.812c-3.473-1.5-4.946-3.567-7.285-6.465C420 948 420 948 417.563 946.063c-2.987-2.405-5.28-5.117-7.72-8.063-1.843-2-1.843-2-4.28-3.898-4.486-3.679-7.67-8.498-11.104-13.135q-1.48-1.995-2.977-3.977C368.32 886.307 338.912 838.876 340 799" id="svg-layer-24" style="pointer-events: all;"/><path fill="#9005E4" d="M362 871h2c.51 1.007 1.02 2.014 1.547 3.05 7.195 13.997 15.127 27.604 24.765 40.075l2.407 3.133C395 920 395 920 397.28 922.055c2.397 2.295 3.498 3.836 4.719 6.945a76 76 0 0 1-1.094 8.742q-.457 2.838-.903 5.679l-.499 3.165c-.95 6.434-1.67 12.897-2.399 19.36l-.238 2.108q-.602 5.354-1.194 10.71c-.408 3.682-.83 7.363-1.255 11.044q-.489 4.292-.96 8.585-.226 2.04-.465 4.08a645 645 0 0 0-.625 5.645l-.363 3.233C392 1014 392 1014 394 1017c-3.123-1.386-5.242-2.995-7.645-5.414l-2.052-2.059-2.115-2.152-2.08-2.082c-4.566-4.605-8.893-9.367-13.108-14.293l-1.496-1.733a988 988 0 0 1-4.129-4.83l-1.367-1.591a143 143 0 0 1-2.672-3.24C356 978 356 978 354.508 976.587c-2.642-2.817-3.475-4.803-3.637-8.702.305-4.18.814-8.296 1.379-12.447q.296-2.413.583-4.828.664-5.53 1.362-11.056c.947-7.61 1.799-15.232 2.649-22.854l.237-2.13.953-8.538a10534 10534 0 0 1 3.001-26.549z" id="svg-layer-25" style="pointer-events: all;"/><path fill="#E600DB" d="M768 908h2a2735 2735 0 0 1-1.544 15.96q-.268 2.714-.52 5.427c-.245 2.606-.505 5.209-.768 7.812l-.218 2.44c-.556 5.292-1.529 9.12-5.581 12.871l-1.783 1.252-2.03 1.436-2.181 1.49-2.283 1.579C721.805 979.63 686.435 992.479 649 998l-2.398.36c-18.697 2.643-37.77 1.83-56.602 1.64 1-2 1-2 2.996-2.727l2.656-.683 3.003-.797 3.283-.856c12.55-3.392 24.771-7.46 37.003-11.85a574 574 0 0 1 8.532-2.946C691.176 965.153 735.158 940.842 768 908" id="svg-layer-26" style="pointer-events: all;"/><path fill="#9105E5" d="M788 867c1.1 2.256 2.094 4.501 3.063 6.813l.95 1.888c.93 2.34 1.244 3.779.987 6.299-2.443 4.181-5.653 7.523-9 11l-2.635 2.793a488 488 0 0 1-8.24 8.332l-2.777 2.8c-6.139 6.122-12.54 11.712-19.348 17.075l-2.184 1.742c-15.034 11.917-30.835 22.026-47.714 31.119a420 420 0 0 0-5.762 3.19c-7.548 4.2-15.3 7.805-23.215 11.261l-2.919 1.276A185 185 0 0 1 652 979l-.507-1.984c-2.162-8.221-4.948-16.142-7.884-24.114l-1.062-2.965-.974-2.66C641 945 641 945 642 942l3.602-.262C686.358 938.43 722.17 922.253 754 897l1.648-1.293c8.672-6.857 16.383-14.59 24.082-22.51l2.375-2.427 2.13-2.2C786 867 786 867 788 867" id="svg-layer-27" style="pointer-events: all;"/><path fill="#AF37EA" d="M646 484c21.534.734 42.48 6.809 63 13l2.672.803C737.596 505.72 763.122 516.396 786 531a2952 2952 0 0 1-1 21l-.113 2.238a558 558 0 0 1-.324 5.45l-.184 3.011C784 565 784 565 782 567l-1.976-1.48c-6.891-5.095-13.958-9.748-21.274-14.207l-1.695-1.037c-33.387-20.388-67.384-36.493-104.65-48.457-2.5-.851-4.953-1.838-7.405-2.819z" id="svg-layer-28" style="pointer-events: all;"/><path fill="#5C07E6" d="M1005 589c-3.811 37.777-3.811 37.777-5.687 54.25l-.361 3.218-.339 2.923-.288 2.5C998 654 998 654 997 657l2 1-1.11 1.152c-6.192 6.739-11.23 14.293-16.446 21.787-3.083 4.4-6.264 8.73-9.444 13.061-2.902-1.313-4.967-2.719-7.207-4.977-.583-.584-1.166-1.167-1.766-1.77l-1.84-1.878-1.91-1.934c-4.266-4.344-8.36-8.778-12.277-13.441q-2.374-2.771-4.753-5.54-3.628-4.226-7.247-8.46c3.748-8.25 10.817-15.024 16.863-21.645a249 249 0 0 0 5.387-6.168C991.52 589 991.52 589 1005 589" id="svg-layer-29" style="pointer-events: all;"/><path fill="#9105E4" d="m1240 801 1 2a122 122 0 0 1-3.375 8.25l-1.102 2.45c-5.542 11.993-12.86 22.326-21.523 32.3l-2.426 2.832c-6.552 7.496-6.552 7.496-10.574 9.168v2a140 140 0 0 1-7.125 5.625l-2.21 1.636c-32.167 23.441-71.368 32.059-110.665 26.552-28.581-4.489-57.4-16.589-80-34.813l-1-2 6.25 1.563 2.114.523c4.694 1.166 9.376 2.368 14.054 3.598 55.868 14.559 117.086 18.61 168.695-11.5 20.628-12.753 35.67-29.465 47.887-50.184" id="svg-layer-30" style="pointer-events: all;"/><path fill="#150C80" d="m698 652-1 2-2.281-.655C633.3 635.805 567.615 626.436 509 658c-4.188 2.407-8.124 5.119-12 8l-2.492 1.82C479.354 679.391 468.263 693.442 459 710l-1-2a94 94 0 0 1 2.875-7.187l.957-2.155c5.265-11.54 11.842-22.074 20.168-31.658l2.078-2.445C541.148 599.067 631.098 606.38 698 652" id="svg-layer-31" style="pointer-events: all;"/><path fill="#5C07E6" d="m592.375 469.75 2.43-.003c26.258.022 52.736 2.608 78.195 9.253v8c-9.098-.574-17.989-1.635-27-3v15l12.451 3.691 2.686.801 2.46.73c2.52.816 4.955 1.768 7.403 2.778v9c-3.769.977-6.263.945-10.008-.074l-2.95-.769-3.167-.845c-9.323-2.363-18.607-4.24-28.125-5.625l-3.274-.48c-12.892-1.803-25.792-2.397-38.788-2.77l-4.303-.13A6223 6223 0 0 0 570 505q-.04-2.594-.062-5.187l-.036-2.918c.093-2.75.477-5.22 1.098-7.895q-7.065.541-14.13 1.117-2.392.192-4.785.375c-9.544.73-18.73 1.835-28.061 4.009-2.83.467-4.371.474-7.024-.501 16.518-7.728 36.512-14.69 55-14v-9c6.655-1.664 13.543-1.244 20.375-1.25" id="svg-layer-32" style="pointer-events: all;"/><path fill="#4C1A75" d="M831 717h2v2l1.598.691c3.212 1.75 5.989 3.975 8.84 6.246l1.858 1.47c4.779 3.803 9.453 7.719 14.097 11.683 3.858 3.291 7.784 6.477 11.76 9.625a738 738 0 0 1 8.943 7.324A713 713 0 0 0 904 775q3.503 2.683 7 5.375l3.125 2.398A531 531 0 0 1 922 789c-.658 4.87-2.646 8.92-4.719 13.316l-1.134 2.442c-1.21 2.604-2.429 5.204-3.647 7.804q-2.471 5.302-4.937 10.606l-1.216 2.608a852 852 0 0 0-9.884 22.004c-2.248 5.113-2.248 5.113-4.463 6.22l-.196-2.42c-2.743-32.828-7.333-67.896-33.804-90.58-3.224-2.533-6.538-4.806-10-7l-2.39-1.617c-8.327-5.399-17.73-8.464-27.61-9.383a115 115 0 0 1 4.348-9.828l1.334-2.672 1.38-2.75 1.393-2.797 1.33-2.656L829 719.87c1-1.87 1-1.87 2-2.87" id="svg-layer-33" style="pointer-events: all;"/><path fill="#C603E3" d="M799 708c3.448 1.551 6.23 3.592 9.188 5.938l2.667 2.09C813 718 813 718 814 721c-1.013 2.55-1.013 2.55-2.613 5.602L809.619 730l-1.932 3.625-1.954 3.713c-4.579 8.664-9.362 17.185-14.457 25.556a796 796 0 0 0-4.17 6.985c-6.078 10.244-12.345 20.338-18.898 30.286a1007 1007 0 0 0-3.216 4.925c-6.024 9.188-12.5 18.05-18.992 26.91l-1.613 2.209C731.486 851.832 717.57 867.227 699 879l-1.84 1.194C680.955 890.626 655.954 905.144 636 904c2.502-1.668 4.41-2.631 7.176-3.664C675.95 887.837 703.14 866.106 724 838l1.567-2.103C754.783 796.511 778.817 752.645 799 708" id="svg-layer-34" style="pointer-events: all;"/><path fill="#830683" d="M1105 606c39.37-.703 81.931 9.87 111 37.651 26.416 26 34.635 59.33 36 95.349h-1l-.364-2.057c-2.38-13.226-4.75-25.793-10.636-37.943l-1.398-2.926c-12.841-25.079-35.12-41.302-61.477-49.824-5.577-1.707-11.198-2.97-16.937-4l-2.168-.39c-4.064-.68-7.852-.84-11.957-.735-3.881-.265-4.892-.95-7.672-3.793-2.226-2.816-4.247-5.766-6.265-8.733-4.987-7.082-11.968-11.788-19.075-16.52-2.802-1.91-5.435-3.924-8.051-6.079" id="svg-layer-35" style="pointer-events: all;"/><path fill="#AE36E9" d="M1048 570c-.173 5.681-.569 11.334-1 17l-.279 3.931c-.268 3.66-.596 7.31-.952 10.962q-.206 2.22-.362 4.442c-.86 11.97-.86 11.97-4.605 16.075-2.526 1.775-5.044 3.21-7.802 4.59-10.935 7.638-20.463 16.253-29.71 25.835-1.394 1.425-2.838 2.8-4.29 4.165h-2c3.786-36.25 3.786-36.25 5.688-53.625l.36-3.349.339-3.065.288-2.631.325-2.33.255-2.135c1.093-2.735 2.695-3.323 5.276-4.67l2.874-1.51 3.095-1.56 3.134-1.606C1039.574 570 1039.574 570 1048 570" id="svg-layer-36" style="pointer-events: all;"/><path fill="#9105E5" d="M789 926c0 4.393-2.612 6.897-5.187 10.25l-1.64 2.152C769.23 955.212 754.83 971.01 738 984l-3.004 2.414c-15.641 12.479-33.022 22.53-51.558 30.024l-2.562 1.037c-4.286 1.682-8.267 2.995-12.876 3.525-3.45-8.19-6.253-16.555-9-25l2.145-.531C711.073 983.019 752.863 963.329 789 926" id="svg-layer-37" style="pointer-events: all;"/><path fill="#9005E4" d="M1005 589c-3.811 37.777-3.811 37.777-5.687 54.25l-.361 3.218-.339 2.923-.288 2.5C998 654 998 654 997 657l2 1-1.11 1.152c-7.632 8.305-13.834 17.852-20.148 27.172l-1.867 2.739-1.57 2.347L973 693h-2a501 501 0 0 1 2.629-29.71l.466-4.042q.977-8.453 1.97-16.904.61-5.219 1.209-10.439.338-2.91.684-5.817c.59-5.127 1.122-10.12.998-15.284.044-3.804.044-3.804 2.247-6.59 1.006-.75 2.011-1.502 3.047-2.277l1.619-1.237c1.686-1.27 3.4-2.49 5.131-3.7l1.714-1.22c9.591-6.78 9.591-6.78 12.286-6.78" id="svg-layer-38" style="pointer-events: all;"/><path fill="#AE36E9" d="M714.997 534.03a279 279 0 0 0 6.62 3.072C743.256 546.967 763.19 559.497 782 574l-2 1c-1.726-.858-1.726-.858-3.84-2.254l-2.431-1.57-2.667-1.739c-16.42-10.44-33.823-19.368-51.632-27.203C717 541 717 541 716 539l-2.375.063C711 539 711 539 709 538v-2l-3 1v-2h-5v-2l-8-1v-2l-2.028-.54c-4.762-1.28-9.5-2.6-14.206-4.073C605.578 503.296 523.03 504.057 456 539c-15.155 8.075-28.605 18.186-41.766 29.16A145 145 0 0 1 408 573c-.66-1.809-.66-1.809-1-4 7.933-9.481 19.037-16.826 29.25-23.687l1.951-1.316C442.747 541 442.747 541 445 541v-4l2.578-.777a172 172 0 0 0 21.672-8.473c19.736-9.136 40.368-15.015 61.75-18.75l2.69-.476c60.258-10.494 126.258-1.474 181.307 25.506" id="svg-layer-39" style="pointer-events: all;"/><path fill="#AF37EA" d="m836 787 1 2c-.874 2.189-.874 2.189-2.29 4.926l-1.583 3.072-1.752 3.314-1.793 3.41C820.118 821.495 809.336 838.09 797 854l-1.658 2.154c-12.88 16.603-27.647 32.325-44.72 44.668a255 255 0 0 0-4.852 3.635C731.173 915.427 714.98 924.325 698 931l-1.915.787C672.468 941.434 645.308 945.135 620 942v-1l2.19-.18c17.11-1.468 33.315-4.028 49.81-8.82l2.1-.584c39.495-11.102 72.925-37.275 101.462-65.791l2.67-2.633c6.03-6.016 11.465-12.333 16.768-18.992a918 918 0 0 1 3.3-3.977c11.863-14.324 22.197-29.607 32.438-45.114 1.746-2.642 3.504-5.276 5.262-7.909" id="svg-layer-40" style="pointer-events: all;"/><path fill="#9105E4" d="m698 652-1 2-2.281-.655C666.246 645.214 637.695 638.47 608 637l2-1v-9c-14.434-.96-28.563-.9-43 0v-9c47.313-9.384 92.33 7.632 131 34" id="svg-layer-41" style="pointer-events: all;"/><path fill="#4D1C75" d="M693 530c-3.703 1.234-5.084.606-8.785-.512l-3.518-1.042-3.76-1.134C607.9 507.029 532.91 508.434 467 539l-2.158.987C425.63 558.09 395.09 587.963 372 624l-1.12 1.723C357.024 647.176 346.69 671.38 340 696c-1.146-3.393-.84-5.49.152-8.902l.842-2.916.943-3.12.966-3.234C351.539 649.46 364.447 613.385 387 593h2c3.223-2.96 5.663-5.946 7-10.125 1.401-4.028 3.605-5.365 7-7.875l1 2 3-7 2 2 1.738-1.695C424.275 557.528 439.584 546.75 456 538l2.151-1.15C478.366 526.24 500.66 519.446 523 515l2.306-.46C581.487 503.749 639.494 511.069 693 530" id="svg-layer-42" style="pointer-events: all;"/><path fill="#C703E3" d="M477 992c4.086.733 7.595 2.687 11.25 4.563l1.969.998q2.392 1.216 4.781 2.439c-.638 13.014-2.124 25.93-3.584 38.873q-.627 5.568-1.244 11.137l-.797 7.119-.373 3.343c-.55 4.868-1.118 9.707-2.002 14.528-4.841-.588-8.96-2.077-13.375-4.062l-1.941-.854A803 803 0 0 1 467 1068l2-1 .113-2.76c.598-12.692 2.011-25.275 3.471-37.892q.629-5.448 1.244-10.899.397-3.482.797-6.965l.373-3.273.354-3.048c.1-.88.202-1.758.307-2.664.345-2.527.814-5.004 1.341-7.499" id="svg-layer-43" style="pointer-events: all;"/><path fill="#0E0C7A" d="m1001 857 5 1v2l2.273.703c4.11 1.43 8.105 3.068 12.128 4.724 16.802 6.893 33.627 12.674 51.599 15.573l3.719.621c24.652 3.709 50.842 2.215 74.953-4.07C1153 877 1153 877 1156 877v10c-44.602 14.617-88.427 8.502-129.81-12.335-22.08-11.447-22.08-11.447-25.19-17.665" id="svg-layer-44" style="pointer-events: all;"/><path fill="#AD34E9" d="m1123 518-2.512-.048c-16.72-.274-33.03-.323-49.488 3.048l-2.974.602c-26.942 5.615-51.987 15.52-74.586 31.401C989.176 556 989.176 556 987 556v2c-1.617 1.191-1.617 1.191-3.875 2.563-5.58 3.585-10.266 7.949-15.125 12.437-5.613 5-5.613 5-8 5l-.605 1.629c-2.002 3.403-4.775 5.701-7.707 8.308-10.479 9.434-10.479 9.434-14.5 14.375L935 605c0-13.955 22.684-32.928 32.213-42.464 34.17-33.373 108.514-69.78 155.787-44.536" id="svg-layer-45" style="pointer-events: all;"/><path fill="#5008AD" d="m484 894 3 2.313c20.652 15.398 42.849 29.09 68 35.687v2l1.779.345c6.644 1.307 13.246 2.764 19.846 4.28l3.043.695L587 941v1c-7.026.09-13.942-.09-20.937-.75l-2.824-.267c-25.313-2.516-50.944-6.24-75.239-13.983l-.26-2.168-1.178-9.832-.408-3.41c-.703-5.865-1.414-11.73-2.154-17.59" id="svg-layer-46" style="pointer-events: all;"/><path fill="#5108AD" d="m1029 497-2.437 1.035c-59.257 25.233-59.257 25.233-82.747 43.68C942 543 942 543 940 543v-6a281 281 0 0 0-27 19l-2.59 1.965c-23.558 18.33-23.558 18.33-28.41 28.035-3.44-1.242-6.252-2.557-9-5 0-2 0-2 1.398-3.41l1.977-1.653A224 224 0 0 0 885.25 568c13.082-11.776 27.793-21.778 42.75-31l1.983-1.243C958.495 517.943 989.85 506.312 1022 497l2.183-.672C1026 496 1026 496 1029 497" id="svg-layer-47" style="pointer-events: all;"/><path fill="#AF36E9" d="M1201 603c26.927 21.074 40.488 58.111 47.188 90.375l.787 3.691c1.84 8.722 3.187 16.955 3.088 25.871l-.014 2.362q-.02 2.85-.049 5.701h-1l-.262-3.418c-1.534-17.923-5.13-35.211-12.738-51.582l-.87-1.88c-4.7-9.971-10.637-18.075-18.13-26.12l-2.504-2.75c-5.903-6.215-12.23-10.781-19.496-15.25l.367-2.352A1793 1793 0 0 0 1201 603" id="svg-layer-48" style="pointer-events: all;"/><path fill="#4A137B" d="M767.689 791.757 770 792c.762 1.582.762 1.582 1 4a63 63 0 0 1-4.187 6.688l-1.375 1.989A869 869 0 0 1 761 811q-1.426 2.048-2.848 4.098A1154 1154 0 0 1 749 828l-1.721 2.41C733.604 849.512 718.959 866.28 699 879l-1.845 1.198C680.951 890.628 655.952 905.144 636 904c4.745-3.163 9.656-4.743 15.191-5.836 5.058-1.099 9.483-3.03 14.121-5.289l2.517-1.213A124 124 0 0 0 687 880l3.16-2.3c8.128-6.021 15.568-12.68 22.84-19.7l1.788-1.721C722.393 848.917 729.562 841.42 736 833l1.611-2.084c6.012-7.794 11.949-15.604 17.291-23.877l1.896-2.932a372 372 0 0 0 3.546-5.655c.54-.845 1.078-1.69 1.633-2.561l1.408-2.28C765 792 765 792 767.69 791.756" id="svg-layer-49" style="pointer-events: all;"/><path fill="#9105E5" d="m581.356 479.839 2.599-.029 2.803-.013 2.935-.02c3.144-.018 6.288-.024 9.432-.027l3.215-.007c16.088-.014 31.764.59 47.66 3.257l-4 1v16l-6.687-1.687c-21.878-5.227-43.866-8.154-66.313-9.313v-8c2.849-.808 5.399-1.134 8.356-1.161" id="svg-layer-50" style="pointer-events: all;"/><path fill="#9005CF" d="M392 919c3.358 1.415 5.208 3.014 7.375 5.938l1.648 2.09c1.072 3.26.866 4.326.164 7.6-1.507 7.717-2.333 15.5-3.203 23.31q-.27 2.42-.544 4.84-.563 5.038-1.119 10.076c-.476 4.306-.966 8.611-1.46 12.915a2545 2545 0 0 0-1.111 9.965 985 985 0 0 1-.541 4.766c-.255 2.21-.496 4.42-.733 6.633l-.426 3.809C392 1014 392 1014 394 1017c-4.668-2.169-8.117-4.684-11-9-1.42-9.208.638-19.273 1.715-28.492l.53-4.681q.555-4.87 1.118-9.737.72-6.224 1.426-12.447.678-5.974 1.363-11.948l.26-2.278q.368-3.205.74-6.409l.424-3.672c.398-3.129.882-6.229 1.424-9.336" id="svg-layer-51" style="pointer-events: all;"/><path fill="#5B08E5" d="M567 618v9l-1.905.471C531.398 635.871 498.939 650.85 478 680l-.957 2.434c-1.356 3.336-3.48 5.865-5.73 8.629-4.766 5.997-8.647 12.2-12.313 18.937l-1-2a94 94 0 0 1 2.875-7.187l.957-2.155c5.265-11.54 11.842-22.074 20.168-31.658l2.078-2.445C503.166 642.652 536.318 618 567 618" id="svg-layer-52" style="pointer-events: all;"/><path fill="#9104E4" d="M671 508c6.973 1.318 13.034 3.48 19.5 6.375l2.997 1.326C717.763 526.527 740.594 538.753 763 553l-1 6c-4.35-1.288-7.773-2.958-11.562-5.437-25.041-15.85-52.442-26.31-80.438-35.563z" id="svg-layer-53" style="pointer-events: all;"/><path fill="#C702E3" d="m1240 801 1 2a122 122 0 0 1-3.375 8.25l-1.102 2.45c-5.542 11.993-12.86 22.326-21.523 32.3l-2.426 2.832c-6.552 7.496-6.552 7.496-10.574 9.168v2c-1.46 1.29-1.46 1.29-3.375 2.625l-1.898 1.352C1195 865 1195 865 1193 865l-1-5-3.402 1.828C1167.72 873 1167.72 873 1162 873v-8l1.614-.607c31.996-12.146 56.941-30.677 74.386-60.393z" id="svg-layer-54" style="pointer-events: all;"/><path fill="#5B08E4" d="M1006 859a105 105 0 0 1 13.805 2.707q1.957.513 3.916 1.023l2.051.537c22.704 5.894 45.035 9.095 68.447 10.338 5.294.283 10.52.737 15.781 1.395.098 6.152.098 6.152 0 8-2.372 2.372-9 1.25-12.316 1.251-31.874-.366-63.447-9.748-91.684-24.251z" id="svg-layer-55" style="pointer-events: all;"/><path fill="#0D0C76" d="M831 717h2v2l1.566.668c3.409 1.866 6.333 4.234 9.371 6.644l1.842 1.436c3.708 2.924 6.832 5.863 10.221 9.252l-5 17c-5.48-1.096-5.48-1.096-8.5-3.312-7.166-4.692-16.022-6.9-24.5-7.688a115 115 0 0 1 4.348-9.828l1.334-2.672 1.38-2.75 1.393-2.797 1.33-2.656L829 719.87c1-1.87 1-1.87 2-2.87" id="svg-layer-56" style="pointer-events: all;"/><path fill="#C802E3" d="M619 618c29.186 4.067 54.914 17.576 79 34l-1 2-2.281-.655C677.923 648.549 661.173 644.271 644 641v-1h5l-1-5c-9.597-3.117-19.117-5.919-29-8z" id="svg-layer-57" style="pointer-events: all;"/><path fill="#E700DA" d="M799 708c3.415 1.641 6.212 3.578 9.188 5.938l2.667 2.09C813 718 813 718 814 721c-1.076 2.66-1.076 2.66-2.754 5.848l-1.842 3.525-.98 1.84a685 685 0 0 0-2.871 5.457c-3.627 6.916-7.441 13.69-11.553 20.33-3.006-3.006-2.596-5.824-3-10l-2 3h-2c-2.451-16.298 4.622-28.82 12-43" id="svg-layer-58" style="pointer-events: all;"/><path fill="#9105E4" d="M753 795h1c1.501 5.475 2.558 10.902-.067 16.122-3.03 4.592-6.61 8.735-10.22 12.877-1.977 2.31-3.792 4.708-5.595 7.155C732.607 838.608 726.42 845.337 720 852l-1.771 1.854c-8.518 8.878-17.32 16.85-27.229 24.146-.86.643-1.72 1.286-2.605 1.95C677.73 887.69 665.592 894.893 653 899l-3-1 2.938-1.398C668.457 889.1 682.14 880.489 695 869l4.188-3.562c20.416-18.11 36.039-41.542 50.199-64.707l1.363-2.223 1.234-2.035z" id="svg-layer-59" style="pointer-events: all;"/><path fill="#9104E4" d="M673 479c30.97 7.369 66.23 18.153 93 36l-1 4c-4.121-.621-7.286-2.009-11-3.875-26.274-12.633-54.582-20.954-83-27.125l2-1z" id="svg-layer-60" style="pointer-events: all;"/><path fill="#0F0D78" d="M940 537c.387 3.172.387 3.172 0 7-2.069 2.146-3.776 3.596-6.187 5.25q-1.935 1.418-3.864 2.844l-1.994 1.449c-3.053 2.275-5.942 4.729-8.83 7.207l-1.623 1.385A2192 2192 0 0 0 913 566l-2.555 2.176-2.195 1.886-1.86 1.598C905 573 905 573 904 575h-2v2a127 127 0 0 1-3.355 3.36c-3.39 3.38-6.487 7.044-9.645 10.64-3.426-1.204-5.533-2.359-8-5 12.338-14.381 25.61-26.949 41-38l4.11-2.988C937.186 537 937.186 537 940 537" id="svg-layer-61" style="pointer-events: all;"/><path fill="#8D06E4" d="M445 538v3a74 74 0 0 1-6.187 4.063c-7.335 4.53-14.12 9.51-20.813 14.937l-2.93 2.352c-5.407 4.56-8.126 7.845-10.07 14.648l-2 1-1-2c-4.773 4.27-4.773 4.27-5.875 7.813-1.634 4.628-4.784 7.667-8.125 11.187l-2-3 1.645-1.484c4.912-5.135 6.662-8.863 7.073-15.817.643-10.819.643-10.819 3.898-14.553 4.247-3.408 9.025-5.77 13.956-8.032 2.304-1.057 4.545-2.19 6.787-3.372 3.839-2.007 7.725-3.892 11.641-5.742l3.336-1.602C441.569 538 441.569 538 445 538" id="svg-layer-62" style="pointer-events: all;"/><path fill="#C704E4" d="M1187 592c5.806 2.118 10.517 4.764 14 10 .639 5.16-.112 9.902-1 15l-.547 3.637c-.437 2.799-.92 5.58-1.453 8.363-3.753-.72-6.86-2.331-10.25-4.062l-3.266-1.66L1182 622l1-2c.28-1.932.511-3.871.719-5.812l.386-3.508.395-3.68q.385-3.594.781-7.187l.346-3.231C1186 594 1186 594 1187 592" id="svg-layer-63" style="pointer-events: all;"/><path fill="#5008AD" d="M610 627v9l-2.101.076c-13.975.51-27.94 1.076-41.899 1.924l1-10-3-1c35.444-3.519 35.444-3.519 46 0" id="svg-layer-64" style="pointer-events: all;"/><path fill="#090CE7" d="M513 640c.362 2.999.594 5.092 0 8-1.968 2.414-4.45 3.905-7.062 5.563-6.289 4.326-11.836 8.927-17.188 14.375l-1.875 1.898c-8.192 8.428-8.192 8.428-9.832 12.598-1.356 3.336-3.48 5.865-5.73 8.629-4.766 5.997-8.647 12.2-12.313 18.937l-1-2a94 94 0 0 1 2.875-7.187l.957-2.155c5.265-11.54 11.842-22.074 20.168-31.658l2.078-2.445C505.477 640 505.477 640 513 640" id="svg-layer-65" style="pointer-events: all;"/><path fill="#C907E3" d="m1110 742 .367 1.934.508 2.504.492 2.496L1112 751l2 1c-11.456.205-22.667.1-34.044-1.376-5.675-.718-5.675-.718-8.956.376-2.72-.826-5.296-1.72-7.937-2.75l-2.17-.805c-3.71-1.416-6.853-2.81-9.893-5.445l3.637.219c34.045 1.943 34.045 1.943 47.77-.88 2.797-.366 4.877-.043 7.593.661" id="svg-layer-66" style="pointer-events: all;"/><path fill="#5008AD" d="M1156 877v10c-24.235 7.444-24.235 7.444-36 7l1-10-4-1 1.905-.228c21.907-2.65 21.907-2.65 31.767-5.221C1153 877 1153 877 1156 877" id="svg-layer-67" style="pointer-events: all;"/><path fill="#9105E2" d="m1029 497-2.437 1.035c-14.79 6.298-29.462 12.66-43.754 20.04-2.88 1.483-5.766 2.798-8.809 3.925l1-5a958 958 0 0 0-31 16v-5c22.489-12.628 46.285-21.737 71-29l3.055-.918 2.976-.863 2.674-.783C1026 496 1026 496 1029 497" id="svg-layer-68" style="pointer-events: all;"/><path fill="#050CE9" d="M909 550c.72 3.662.978 5.469 0 9-3.035 3.557-6.582 6.43-10.164 9.411-3.335 2.886-6.418 6.023-9.524 9.152l-1.854 1.842c-4.33 4.34-4.33 4.34-5.458 6.595-3.44-1.242-6.252-2.557-9-5 0-2 0-2 1.398-3.41l1.977-1.653c3.093-2.62 6.096-5.3 9.063-8.062 4.682-4.235 9.612-8.1 14.625-11.937l2.312-1.772C907.868 550 907.868 550 909 550" id="svg-layer-69" style="pointer-events: all;"/><path fill="#9105CF" d="M607 626c7.059-.308 13.532.847 20.438 2.25l3.275.621C637.25 630.18 643.054 631.97 649 635v5c-7.055.27-13.866-.266-20.848-1.214-6.702-.898-13.401-1.385-20.152-1.786l2-1v-9z" id="svg-layer-70" style="pointer-events: all;"/><path fill="#9106CF" d="M1005 589c-3.811 37.777-3.811 37.777-5.687 54.25l-.361 3.218-.339 2.923-.288 2.5C998 654 998 654 997 657l2 1a159 159 0 0 1-5 6h-2c-.192-7.927.55-15.678 1.39-23.555l.22-2.07q.572-5.403 1.161-10.806c.403-3.714.785-7.43 1.162-11.146.296-2.869.607-5.735.922-8.601q.222-2.055.426-4.113c.19-1.91.406-3.82.622-5.728l.35-3.29c.747-2.691.747-2.691 2.69-4.565C1003 589 1003 589 1005 589" id="svg-layer-71" style="pointer-events: all;"/><path fill="#9106CE" d="m1193 859 1 7c-27.81 20-27.81 20-38 20v-9l-2-1 2.938-1.031c10.097-3.623 19.551-8.024 29.062-12.969 5.865-3 5.865-3 7-3" id="svg-layer-72" style="pointer-events: all;"/><path fill="#E600DA" d="m1240 801 1 2a122 122 0 0 1-3.375 8.25l-1.102 2.45c-6.263 13.553-14.811 25.853-25.523 36.3l-1-5-5 3c-.38-4.493-.38-4.493 1.294-6.722.6-.514 1.2-1.027 1.82-1.555.665-.589 1.33-1.178 2.017-1.784l2.181-1.876c11.48-10.32 19.968-21.747 27.688-35.063" id="svg-layer-73" style="pointer-events: all;"/><path fill="#9105D0" d="m630 481 20 2-4 1v16l-17-4z" id="svg-layer-74" style="pointer-events: all;"/><path fill="#0A0D92" d="M434 831c2.81 2.535 4.637 5.419 6.625 8.625 3.292 5.292 3.292 5.292 4.375 6.375.698 3.41 1.133 6.867 1.625 10.313l.445 2.92.407 2.818.377 2.583c.147 2.378-.142 4.107-.854 6.366-11.575-8.635-11.575-8.635-12.504-13.805.26-1.938.596-3.866.992-5.78.657-4.386.167-8.296-.425-12.665l-.304-2.315c-.243-1.813-.5-3.624-.759-5.435" id="svg-layer-75" style="pointer-events: all;"/><path fill="#2D0B9C" d="M563.25 627.938 567 628q.039 2.188.063 4.375l.035 2.46C567 637 567 637 566 639c-1.902.61-1.902.61-4.367 1.105l-2.684.541-2.824.542-2.8.576c-6.94 1.364-6.94 1.364-10.325.236l1-8-2-1 6.25-1.937 3.516-1.09c3.992-1.201 7.307-2.105 11.484-2.035" id="svg-layer-76" style="pointer-events: all;"/><path fill="#070CE9" d="M1006 859c4.878.623 9.525 1.55 14.297 2.777l2.043.52c2.85.724 5.696 1.457 8.543 2.19 8.326 2.135 16.621 4.149 25.117 5.513v8a165 165 0 0 1-18.937-5.125l-2.73-.91a225 225 0 0 1-18.52-7.278l-2.303-1.021c-2.89-1.32-5.245-2.401-7.51-4.666" id="svg-layer-77" style="pointer-events: all;"/><path fill="#5C08E7" d="M714 850h1c.504 6.261.504 6.261-1.695 9.484C706.2 866.11 698.779 872.184 691 878l-2.625 1.969C677.702 887.693 665.589 894.895 653 899l-3-1 2.938-1.398C668.457 889.1 682.14 880.489 695 869l4.188-3.562c12.67-11.156 12.67-11.156 14.812-15.438" id="svg-layer-78" style="pointer-events: all;"/><path fill="#5B08E4" d="M944 528c.25 2.313.25 2.313 0 5-2.044 1.976-3.118 3-6 3v2c-1.68 1.236-3.424 2.386-5.187 3.5-5.37 3.478-10.44 7.193-15.447 11.174-2.678 2.11-5.233 3.955-8.366 5.326-.423-3.063-.684-5.044 0-8 1.463-1.524 1.463-1.524 3.434-2.89l2.204-1.544a515 515 0 0 1 11.924-7.691c.812-.512 1.623-1.024 2.46-1.55C942.277 528 942.277 528 944 528" id="svg-layer-79" style="pointer-events: all;"/><path fill="#2A0B9B" d="M1100 884h21v9c-2 2-2 2-4.614 2.227-1.079-.01-2.157-.02-3.269-.032l-3.535-.02-3.707-.05-3.73-.027q-4.573-.036-9.145-.098v-1h7z" id="svg-layer-80" style="pointer-events: all;"/><path fill="#E700DA" d="M662 632c5.31 1.534 9.84 3.93 14.625 6.625l2.386 1.333c6.552 3.705 12.826 7.716 18.989 12.042l-1 2-29-8-1-5-2.562-1.437L662 638c-.312-3.187-.312-3.187 0-6" id="svg-layer-81" style="pointer-events: all;"/><path fill="#110C93" d="M544 634c.125 7.75.125 7.75-1 10-2.33.9-4.62 1.694-7 2.438l-2.051.66q-2.032.655-4.067 1.301a504 504 0 0 0-7.32 2.413L519 652l-1-8c19.13-10.644 19.13-10.644 26-10" id="svg-layer-82" style="pointer-events: all;"/><path fill="#9105CE" d="M782 763h2c1.557 2.382 2.014 3.74 1.86 6.61-1.146 4.517-3.269 8.053-5.673 12.015l-1.33 2.273c-2.283 3.827-4.479 7.125-7.857 10.102l-6-2c3.675-7.04 7.653-13.885 11.75-20.687l1.466-2.469 1.393-2.293 1.25-2.073z" id="svg-layer-83" style="pointer-events: all;"/><path fill="#0A0D90" d="M456 865c3.41 1.42 5.036 3.025 7.188 6 4.866 6.475 10.029 12.912 16.375 18l2.437 2v2c-5.018-1.45-9.135-3.626-13.562-6.312l-1.96-1.147c-4.014-2.413-7.541-4.823-10.478-8.541-.488-3.113-.488-3.113-.312-6.312l.136-3.239z" id="svg-layer-84" style="pointer-events: all;"/><path fill="#6707E6" d="M1075 500c39.642-.851 39.642-.851 58 4l2.378.601c18.264 4.741 36.541 13.005 51.622 24.399.895.675 1.79 1.35 2.71 2.047A334 334 0 0 1 1196 536c-4.025 0-6.1-1.997-9.25-4.25-25.442-17.455-55.65-29.303-86.75-30.066l-2.185-.063a2818 2818 0 0 0-6.815-.183l-4.66-.131q-5.67-.16-11.34-.307z" id="svg-layer-85" style="pointer-events: all;"/><path fill="#7F078C" d="m767.813 791.5 2.187.5c.617 1.79.617 1.79 1 4a76 76 0 0 1-4.562 7.188q-1.394 2.007-2.786 4.015l-1.38 1.963c-2.13 3.07-4.116 6.236-6.116 9.393L755 820h-2v-3l-3-1c1.396-3.973 3.277-6.962 5.813-10.312 2.531-3.373 4.819-6.696 6.875-10.375 1.944-3.248 1.944-3.248 5.125-3.813" id="svg-layer-86" style="pointer-events: all;"/><path fill="#0C0C93" d="m1086 883 14 1v10h-17l3-1z" id="svg-layer-87" style="pointer-events: all;"/><path fill="#C802E3" d="M1029 497q-5.923 2.57-11.853 5.127-2.018.87-4.033 1.746-2.895 1.255-5.794 2.502l-3.523 1.523C1001 509 1001 509 999 509v-2l-3.543 1.277-4.644 1.66-2.33.842c-3.806 1.356-7.476 2.587-11.483 3.221v-2c12.68-4.737 25.39-9.287 38.375-13.125l3.094-.93 2.867-.828 2.517-.73C1026 496 1026 496 1029 497" id="svg-layer-88" style="pointer-events: all;"/><path fill="#830783" d="m386 593 2 3-2.203 2.797C372.97 615.333 363.027 633.159 354 652c-1.475-4.425.686-7.33 2.625-11.312l1.21-2.516C364.92 623.77 373.087 609.648 383 597q1.504-1.997 3-4" id="svg-layer-89" style="pointer-events: all;"/><path fill="#9105CE" d="M999 507v3a6489 6489 0 0 1-9.687 4.875l-2.764 1.395-2.686 1.347-2.46 1.238c-2.432 1.159-4.892 2.172-7.403 3.145.365-2.843.626-4.546 2-7 2.903-2.048 6.057-3.208 9.375-4.437l2.617-1.061C991.978 507.93 994.645 507 999 507" id="svg-layer-90" style="pointer-events: all;"/><path fill="#0B0D75" d="M433 602h2c2.78 10.546 2.722 21.27 1 32h-1c-.51-3.31-1.007-6.624-1.5-9.937l-.434-2.807C430.86 606.28 430.86 606.28 433 602" id="svg-layer-91" style="pointer-events: all;"/><path fill="#E201DC" d="M1238 674c10.177 8.476 12.68 27.697 14 40 .347 5.677.268 11.322 0 17h-1l-.262-3.418c-1.453-16.985-4.8-33.168-11.601-48.844C1238 676 1238 676 1238 674" id="svg-layer-92" style="pointer-events: all;"/><path fill="#2E0B9D" d="M952 529c.313 2.188.313 2.188 0 5-2.945 3.45-6.338 6.327-10 9h-2v-6l-2-1q2.933-1.757 5.875-3.5l3.305-1.969C950 529 950 529 952 529" id="svg-layer-93" style="pointer-events: all;"/><path fill="#850987" d="M645 517c7.361.585 14.102 2.209 21.188 4.25l3.325.944c7.956 2.287 15.77 4.81 23.487 7.806-3.714 1.238-5.137.598-8.855-.512l-3.556-1.042-3.777-1.134c-9.356-2.755-18.685-5.373-28.199-7.523L646 519z" id="svg-layer-94" style="pointer-events: all;"/><path fill="#620875" d="M1189 626c12.077 1.584 23.86 13.735 31 23-3.73-1.598-6.4-3.962-9.437-6.625-6.603-5.667-13.765-10.476-21.563-14.375z" id="svg-layer-95" style="pointer-events: all;"/><path fill="#830685" d="M863 583c2.873 1.31 5.003 2.73 7.285 4.906l1.843 1.742 1.934 1.852 4.016 3.79 2.002 1.895a894 894 0 0 0 8.232 7.69l2.614 2.43C893 609 893 609 895 609v2c-4.178-.527-6.26-2.794-9.25-5.625l-1.528-1.437a949 949 0 0 1-3.35-3.168 816 816 0 0 0-6.216-5.801l-4.406-4.094-2.169-2.01-2.003-1.873-1.8-1.676C863 584 863 584 863 583" id="svg-layer-96" style="pointer-events: all;"/><path fill="#1E107F" d="M668 894c-3.286 3.286-7.713 4.123-12.062 5.563l-2.78.958c-5.767 1.926-11.093 3.026-17.158 3.479 4.777-3.185 9.852-4.832 15.438-5.937 4.217-.848 7.79-2.415 11.617-4.356C665 893 665 893 668 894" id="svg-layer-97" style="pointer-events: all;"/><path fill="#3B1978" d="M887 579h2v10l-4 1c-2.25-1.937-2.25-1.937-4-4a418 418 0 0 1 2.875-3.5l1.617-1.969z" id="svg-layer-98" style="pointer-events: all;"/><path fill="#100CE8" d="m674 885 1 4c-3.036 1.492-6.08 2.966-9.125 4.438l-2.594 1.275c-4.43 2.13-8.314 3.84-13.281 4.287 4.249-3.54 9.21-5.656 14.156-8.04 3.544-1.731 6.792-3.417 9.844-5.96" id="svg-layer-99" style="pointer-events: all;"/><path fill="#AF37EA" d="M395 581h1c.38 3.342.235 4.67-1.75 7.457l-2.25 2.356-2.25 2.394L388 595l-2-3q2.214-2.754 4.438-5.5l2.496-3.094z" id="svg-layer-100" style="pointer-events: all;"/><path fill="#E800DB" d="M1029 497a720 720 0 0 1-7.687 3.563c-.361.17-.361.17-2.186 1.037-4.062 1.836-6.705 2.996-11.127 1.4v-2q4.402-1.296 8.813-2.562l2.525-.749 2.432-.693c.738-.215 1.476-.43 2.237-.65C1026 496 1026 496 1029 497" id="svg-layer-101" style="pointer-events: all;"/><path fill="#8906D3" d="M445 538v3l-11 6v-5a418 418 0 0 1 3.813-2l2.144-1.125C442 538 442 538 445 538" id="svg-layer-102" style="pointer-events: all;"/><path fill="#110C94" d="M940 537c.313 3.313.313 3.313 0 7-2.5 1.938-2.5 1.938-5 3-.293-6.055-.293-6.055 0-8 3-2 3-2 5-2" id="svg-layer-103" style="pointer-events: all;"/><path fill="#840886" d="M402 575c.68 1.766.68 1.766 1 4-1.18 1.922-1.18 1.922-2.875 3.75l-1.68 1.86C397 586 397 586 396 586c-.375-2.125-.375-2.125 0-5 1.793-2.24 3.835-4.125 6-6" id="svg-layer-104" style="pointer-events: all;"/><path fill="#0A0D92" d="M696 599c1.953.555 1.953.555 4 2 .61 3.258.61 3.258.75 7.125l.172 3.883L701 615c-1.465-2.796-2.622-5.57-3.625-8.562-.26-.765-.52-1.53-.79-2.317C696 602 696 602 696 599" id="svg-layer-105" style="pointer-events: all;"/><path fill="#2F1679" d="m676 887 2 1v3c-6.5 3-6.5 3-11 3v-2a432 432 0 0 1 4.375-2.562l2.46-1.442z" id="svg-layer-106" style="pointer-events: all;"/><path fill="#561878" d="m631 514 13 2v3l-12-2z" id="svg-layer-107" style="pointer-events: all;"/><path fill="#150CA9" d="M652 899v2a659 659 0 0 1-5.187 1.5l-2.918.844c-2.748.623-5.091.779-7.895.656 4.864-3.243 10.047-5.558 16-5" id="svg-layer-108" style="pointer-events: all;"/><path fill="#180C9B" d="m1001 857 5 1v2l4 2c-4 0-4 0-6.75-2.5z" id="svg-layer-109" style="pointer-events: all;"/><path fill="#AF37EA" d="M406 571c.188 2.375.188 2.375 0 5l-3 2c-.687-1.812-.687-1.812-1-4 2.357-3 2.357-3 4-3" id="svg-layer-110" style="pointer-events: all;"/><path fill="#241181" d="m1009 862 5 1-1 2-4-1z" id="svg-layer-111" style="pointer-events: all;"/><path fill="#271281" d="m672 889 1 2 2 1-4 1z" id="svg-layer-112" style="pointer-events: all;"/></svg>